<svg xmlns="http://www.w3.org/2000/svg" xmlns:xlink="http://www.w3.org/1999/xlink" width="144" height="62" viewBox="0 0 144 62">
  <defs>
    <filter id="DC_Studio" x="29.5" y="22" width="87" height="23" filterUnits="userSpaceOnUse">
      <feOffset dx="3" dy="2" input="SourceAlpha"/>
      <feGaussianBlur result="blur"/>
      <feFlood flood-color="#2e2c2c" flood-opacity="0.161"/>
      <feComposite operator="in" in2="blur"/>
      <feComposite in="SourceGraphic"/>
    </filter>
  </defs>
  <g id="LogoF" transform="translate(-208.5 -277)">
    <g id="Grupo_1" data-name="Grupo 1">
      <text id="PROFESSIONAL" transform="translate(234 286)" fill="#f6aa1c" font-size="10" font-family="Raleway-Regular, Raleway" letter-spacing="0.15em"><tspan x="0" y="0">PROFESSIONAL</tspan></text>
      <text id="PHOTOGRAPHY" transform="translate(235 337)" fill="#f6aa1c" font-size="10" font-family="Raleway-Regular, Raleway" letter-spacing="0.15em"><tspan x="0" y="0">PHOTOGRAPHY</tspan></text>
      <line id="Línea_2" data-name="Línea 2" x2="144" transform="translate(208.5 321.5)" fill="none" stroke="#707070" stroke-width="2"/>
      <g transform="matrix(1, 0, 0, 1, 208.5, 277)" filter="url(#DC_Studio)">
        <text id="DC_Studio-2" data-name="DC Studio" transform="translate(29.5 36)" fill="#060606" font-size="20" font-family="ColonnaMT, Colonna MT"><tspan x="0" y="0">DC Studio</tspan></text>
      </g>
      <line id="Línea_1" data-name="Línea 1" x2="62.5" transform="translate(208.5 295.5)" fill="none" stroke="#707070" stroke-width="2"/>
      <line id="Línea_3" data-name="Línea 3" x2="63.5" transform="translate(289 295.5)" fill="none" stroke="#707070" stroke-width="2"/>
      <g id="Trazado_1" data-name="Trazado 1" transform="translate(276 291)" fill="#fff">
        <path d="M 6.5 6.5 L 1.5 6.5 L 1.5 1.5 L 6.5 1.5 L 6.5 6.5 Z" stroke="none"/>
        <path d="M 3 3 L 3 5 L 5 5 L 5 3 L 3 3 M 0 0 L 8 0 L 8 8 L 0 8 L 0 0 Z" stroke="none" fill="#707070"/>
      </g>
    </g>
  </g>
</svg>
