<svg height="464pt" viewBox="0 -32 464 464" width="464pt" xmlns="http://www.w3.org/2000/svg"><path d="m376 80-34.015625-56.695312c-8.679687-14.464844-24.316406-23.3125005-41.183594-23.304688h-73.601562c-16.859375 0-32.484375 8.847656-41.160157 23.304688l-34.039062 56.695312h-88c-35.347656 0-64 28.652344-64 64v192c0 35.347656 28.652344 64 64 64h336c35.347656 0 64-28.652344 64-64v-192c0-35.347656-28.652344-64-64-64zm0 0" fill="#5c5c5b"/><path d="m56 48h80v32h-80zm0 0" fill="#cfcfcd"/><path d="m112 48h24v32h-24zm0 0" fill="#c2c2c0"/><path d="m88 136c0 13.253906-10.746094 24-24 24s-24-10.746094-24-24 10.746094-24 24-24 24 10.746094 24 24zm0 0" fill="#878787"/><g fill="#4a4a4a"><path d="m408 208h-10.238281c2.984375 15.859375 2.984375 32.140625 0 48h10.238281c13.253906 0 24-10.746094 24-24s-10.746094-24-24-24zm0 0"/><path d="m80 184h16v168h-16zm0 0"/><path d="m112 128h16v16h-16zm0 0"/><path d="m120 344h16v16h-16zm0 0"/></g><path d="m224 32h80v32h-80zm0 0" fill="#cfcfcd"/><path d="m224 64h80v16h-80zm0 0" fill="#525251"/><path d="m400 232c0 75.109375-60.890625 136-136 136s-136-60.890625-136-136 60.890625-136 136-136 136 60.890625 136 136zm0 0" fill="#cfcfcd"/><path d="m152.953125 310.34375c28.496094 40.613281 76.855469 62.46875 126.167969 57.027344 49.3125-5.445313 91.738281-37.324219 110.691406-83.171875 18.953125-45.851563 11.417969-98.382813-19.660156-137.054688-53.695313 90.742188-144.367188 138.457031-217.199219 163.199219zm0 0" fill="#c2c2c0"/><path d="m360 232c0 53.019531-42.980469 96-96 96s-96-42.980469-96-96 42.980469-96 96-96 96 42.980469 96 96zm0 0" fill="#b0b0ae"/><path d="m208 192h112v80h-112zm0 0" fill="#757574"/></svg>