<svg id="Capa_1" enable-background="new 0 0 512 512" height="512" viewBox="0 0 512 512" width="512" xmlns="http://www.w3.org/2000/svg"><g><path d="m388.667 41.455h86.667v50h-86.667z" fill="#c61368"/><path d="m352.55 91.455h-193.1l22.69-74.5h147.72z" fill="#759ae9"/><path d="m352.55 91.455h-96.55v-74.5h73.86z" fill="#5772c7"/><path d="m0 82.615h512v368.84h-512z" fill="#514d7c"/><path d="m256 82.615h256v368.84h-256z" fill="#31335b"/><path d="m0 82.615h512v117h-512z" fill="#7b7ba9"/><path d="m256 82.615h256v117h-256z" fill="#636497"/><path d="m414.93 316.245c0 87.78-71.15 158.94-158.93 158.94s-158.93-71.16-158.93-158.94c0-87.77 71.15-158.93 158.93-158.93s158.93 71.16 158.93 158.93z" fill="#759ae9"/><path d="m414.93 316.245c0 87.78-71.15 158.94-158.93 158.94v-317.87c87.78 0 158.93 71.16 158.93 158.93z" fill="#5772c7"/><path d="m349.18 316.245c0 51.47-41.72 93.19-93.18 93.19s-93.18-41.72-93.18-93.19c0-51.46 41.72-93.18 93.18-93.18s93.18 41.72 93.18 93.18z" fill="#ead15a"/><path d="m349.18 316.245c0 51.47-41.72 93.19-93.18 93.19v-186.37c51.46 0 93.18 41.72 93.18 93.18z" fill="#e8a133"/><path d="m256 137.455c-98.59 0-178.79 80.21-178.79 178.79 0 98.59 80.2 178.8 178.79 178.8s178.79-80.21 178.79-178.8c0-98.58-80.2-178.79-178.79-178.79zm0 327.59c-82.05 0-148.79-66.75-148.79-148.8 0-82.04 66.74-148.79 148.79-148.79s148.79 66.75 148.79 148.79c0 82.05-66.74 148.8-148.79 148.8z" fill="#ebf1f8"/><path d="m308.26 315.065c0 28.82-23.45 52.26-52.26 52.26s-52.26-23.44-52.26-52.26h30c0 12.27 9.99 22.26 22.26 22.26s22.26-9.99 22.26-22.26z" fill="#514d7c"/><path d="m256 367.325v-30c12.27 0 22.26-9.99 22.26-22.26h30c0 28.82-23.45 52.26-52.26 52.26z" fill="#31335b"/><path d="m434.79 316.245c0 98.59-80.2 178.8-178.79 178.8v-30c82.05 0 148.79-66.75 148.79-148.8 0-82.04-66.74-148.79-148.79-148.79v-30c98.59 0 178.79 80.21 178.79 178.79z" fill="#cadaf6"/></g></svg>