<svg id="portrait" enable-background="new 0 0 300 300" height="512" viewBox="0 0 300 300" width="512" xmlns="http://www.w3.org/2000/svg"><g><path d="m247.265 202c-7.719 0-14 6.281-14 14s6.281 14 14 14 14-6.281 14-14-6.281-14-14-14zm0 20c-3.309 0-6-2.691-6-6s2.691-6 6-6 6 2.691 6 6-2.692 6-6 6z"/><path d="m193.144 195.188-2.613-1.188h46.734c2.209 0 4-1.791 4-4v-156c0-2.209-1.791-4-4-4h-192c-2.209 0-4 1.791-4 4v156c0 2.209 1.791 4 4 4h46.732l-2.613 1.188c-14.652 6.66-24.119 21.541-24.119 37.91v32.902c0 2.209 1.791 4 4 4h144c2.209 0 4-1.791 4-4v-32.902c0-16.369-9.467-31.25-24.121-37.91zm-51.879 35.265-22.783-36.453h45.566zm-48-110.453c2.209 0 4-1.791 4-4v-6.056c8.59-.475 16.657-3.306 23.039-8.117 6.488 9.658 16.691 16.537 28.66 19.164 3.6.791 7.238 1.182 10.883 1.182 10.021 0 20.068-3.001 29.418-8.714v2.541c0 2.209 1.791 4 4 4 1.719 0 3.357.738 4.498 2.027 1.154 1.307 1.67 2.994 1.453 4.754-.199 1.625-1.324 3.221-3.004 4.268-1.686 1.049-3.111 1.215-4.928.574-1.08-.383-2.275-.283-3.277.277-1.002.559-1.717 1.521-1.961 2.643-3.898 17.883-17.117 32.492-34.496 38.125l-1.779.576c-4.895 1.584-10.111 1.65-14.68.182-17.688-5.695-30.998-20.559-34.736-38.791-.23-1.123-.93-2.094-1.924-2.664s-2.182-.689-3.27-.324c-1.541.521-2.967.598-4.918-.715-1.773-1.199-2.914-3.004-2.975-4.707-.059-1.65.537-3.209 1.678-4.391 1.143-1.184 2.676-1.834 4.319-1.834zm4.004-30.016c-.064-17.695 9.609-27.035 17.736-31.754 16.443-9.551 41.762-9.316 58.887.545 7.012 4.035 15.369 11.342 15.369 23.225v21.885c-12.062 8.818-25.697 12.117-38.578 9.283-11.352-2.492-20.764-9.543-25.82-19.342-.586-1.137-1.68-1.926-2.945-2.121-.203-.031-.41-.047-.613-.047-1.055 0-2.078.416-2.834 1.176-5.234 5.244-12.947 8.516-21.172 9.094.008-2.904-.006-6.16-.02-9.449zm35.371 91.057c3.029.975 6.184 1.461 9.377 1.461 3.395 0 6.834-.551 10.219-1.646l.955-.309c-.015 1.184-.029 2.145-.037 2.366-.09 1.173.364 2.281 1.156 3.088h-26.102c.766-.789 1.22-1.865 1.174-2.996-.012-.307-.032-1.679-.052-3.265 1.105.43 2.172.935 3.31 1.301zm-83.375-143.041h184v148h-60.335l-11.741-5.338c.01-.816.024-1.913.04-3.285 15.319-7.314 26.965-20.95 31.689-37.385 2.586.078 5.104-.646 7.523-2.152 3.713-2.312 6.223-6.082 6.717-10.082.492-4.008-.746-8.027-3.402-11.029-1.75-1.98-4.008-3.404-6.49-4.145 0 0 .004-6.699.004-6.705v-23.879c0-12.258-6.883-22.971-19.381-30.166-19.414-11.174-48.18-11.4-66.904-.529-9.955 5.779-21.803 17.188-21.723 38.711 0 0 .002 15.785 0 15.93 0 .008.004.014.004.021v6.608c-2.285.676-4.367 1.936-6.074 3.703-2.662 2.758-4.053 6.391-3.918 10.232.154 4.277 2.582 8.41 6.496 11.053 2.475 1.672 5.025 2.539 7.648 2.439 4.183 15.286 14.331 28.112 27.868 35.902.023 2.125.042 3.668.056 4.759l-11.742 5.337h-60.335zm24 195.098c0-13.24 7.627-25.262 19.43-30.629l16.857-7.662 27.713 44.34v22.853h-36v-24c0-2.209-1.791-4-4-4s-4 1.791-4 4v24h-20zm136 28.902h-16v-24c0-2.209-1.791-4-4-4s-4 1.791-4 4v24h-40v-22.853l27.713-44.34 16.855 7.661c11.805 5.367 19.432 17.389 19.432 30.629z"/><path d="m43.265 203.47c-2.501 0-4.53 2.028-4.53 4.53 0 2.501 2.028 4.529 4.53 4.529s4.53-2.028 4.53-4.529c-.001-2.502-2.029-4.53-4.53-4.53z"/><circle cx="163.265" cy="132" r="4"/><circle cx="123.265" cy="132" r="4"/><path d="m209.265 50h12v12c0 2.209 1.791 4 4 4s4-1.791 4-4v-16c0-2.209-1.791-4-4-4h-16c-2.209 0-4 1.791-4 4s1.791 4 4 4z"/><path d="m73.265 42h-16c-2.209 0-4 1.791-4 4v16c0 2.209 1.791 4 4 4s4-1.791 4-4v-12h12c2.209 0 4-1.791 4-4s-1.791-4-4-4z"/><path d="m225.265 158c-2.209 0-4 1.791-4 4v12h-12c-2.209 0-4 1.791-4 4s1.791 4 4 4h16c2.209 0 4-1.791 4-4v-16c0-2.209-1.791-4-4-4z"/><path d="m73.265 174h-12v-12c0-2.209-1.791-4-4-4s-4 1.791-4 4v16c0 2.209 1.791 4 4 4h16c2.209 0 4-1.791 4-4s-1.791-4-4-4z"/></g></svg>