<svg height="472pt" viewBox="-3 0 471 472" width="472pt" xmlns="http://www.w3.org/2000/svg"><path d="m424.5 272h-160l-11.398438-22.792969c-8.289062-16.574219-12.601562-34.851562-12.601562-53.382812 0-7.863281.777344-15.707031 2.320312-23.417969 3.777344-18.890625 5.679688-38.109375 5.679688-57.375v-19.03125c0-53.019531 42.980469-96 96-96s96 42.980469 96 96v19.03125c0 19.265625 1.902344 38.484375 5.679688 57.375 1.542968 7.710938 2.320312 15.554688 2.320312 23.417969 0 18.53125-4.3125 36.808593-12.601562 53.382812zm0 0" fill="#995023"/><path d="m424.5 96h-8v48h8c13.253906 0 24-10.746094 24-24s-10.746094-24-24-24zm0 0" fill="#feb784"/><path d="m272.5 112c19.683594-5.378906 38.53125-13.457031 56-24 15.277344-11.238281 28.761719-24.722656 40-40 0 0 24 48 48 48v48c0 39.765625-32.234375 72-72 72s-72-32.234375-72-72zm0 0" fill="#fec9a3"/><path d="m464.5 472v-168c0-26.507812-21.492188-48-48-48h-32c-4.417969 0-8-3.582031-8-8v-39.574219c-20.136719 10.101563-43.863281 10.101563-64 0v39.574219c0 4.417969-3.582031 8-8 8h-32c-26.507812 0-48 21.492188-48 48v168" fill="#fec9a3"/><path d="m208.5 192h-144c10.59375-63.5625 10.59375-128.4375 0-192h144c10.59375 63.5625 10.59375 128.4375 0 192zm0 0" fill="#cfcfcd"/><path d="m64.5 0-32 80v32l32 80c10.59375-63.5625 10.59375-128.4375 0-192zm0 0" fill="#b0b0ae"/><path d="m8.5 112h16v88h-16zm0 0" fill="#cfcfcd"/><path d="m.5 80h32v32h-32zm0 0" fill="#cfcfcd"/><path d="m464.5 304c0-26.507812-21.492188-48-48-48h-16l-56 72-56-72h-16c-26.507812 0-48 21.492188-48 48v40h38.335938c-8.945313 21.46875-5.222657 46.128906 9.664062 64v64h144v-64c14.886719-17.871094 18.609375-42.53125 9.664062-64h38.335938zm0 0" fill="#dd4a43"/><path d="m376.5 224.425781v-16c-20.136719 10.101563-43.863281 10.101563-64 0v16c20.136719 10.101563 43.863281 10.101563 64 0zm0 0" fill="#feb784"/><path d="m344.5 176c-13.253906 0-24-10.746094-24-24h16c0 4.417969 3.582031 8 8 8s8-3.582031 8-8h16c0 13.253906-10.746094 24-24 24zm0 0" fill="#fea270"/><path d="m368.5 48c-11.238281 15.277344-24.722656 28.761719-40 40-17.46875 10.542969-36.316406 18.621094-56 24 0 0 48 8 96-40 0 0 24 32 48 24-24 0-48-48-48-48zm0 0" fill="#fec093"/><path d="m308.5 136c-6.628906 0-12-5.371094-12-12s5.371094-12 12-12 12 5.371094 12 12-5.371094 12-12 12zm0 0" fill="#995023"/><path d="m380.5 136c-6.628906 0-12-5.371094-12-12s5.371094-12 12-12 12 5.371094 12 12-5.371094 12-12 12zm0 0" fill="#995023"/><path d="m406.804688 93.511719c1.695312 58.488281-14.304688 98.488281-51.265626 121.550781 35.0625-5.414062 60.941407-35.582031 60.960938-71.0625v-48c-3.378906-.09375-6.691406-.945312-9.695312-2.488281zm0 0" fill="#fec093"/><path d="m230.445312 300-29.945312-12v-32c0-17.671875-14.328125-32-32-32h-136c-17.671875 0-32 14.328125-32 32v176c0 17.671875 14.328125 32 32 32h136c17.671875 0 32-14.328125 32-32v-24l29.945312-12c6.066407-2.425781 10.046876-8.296875 10.054688-14.832031v-66.335938c-.007812-6.535156-3.988281-12.40625-10.054688-14.832031zm0 0" fill="#5c5c5b"/><path d="m176.5 328h32v40h-32zm0 0" fill="#4398d1"/><path d="m136.5 432c0 17.671875-14.328125 32-32 32s-32-14.328125-32-32 14.328125-32 32-32 32 14.328125 32 32zm0 0" fill="#757574"/><path d="m96.5 424h16v16h-16zm0 0" fill="#878787"/><path d="m32.5 256h112v112h-112zm0 0" fill="#4398d1"/><path d="m96.5 321.472656v-3.6875c6.273438-3.621094 9.328125-11.003906 7.453125-18-1.871094-6.992187-8.210937-11.859375-15.453125-11.859375s-13.582031 4.867188-15.453125 11.859375c-1.875 6.996094 1.179687 14.378906 7.453125 18v3.6875c-9.570312 3.355469-15.980469 12.386719-16 22.527344v24h48v-24c-.019531-10.140625-6.429688-19.171875-16-22.527344zm0 0" fill="#dd4a43"/><g fill="#757574"><path d="m160.5 424h16v16h-16zm0 0"/><path d="m24.5 392h16v16h-16zm0 0"/><path d="m24.5 424h16v16h-16zm0 0"/><path d="m160.5 392h16v16h-16zm0 0"/></g><path d="m107.277344 329.222656c3.375 4.1875 5.214844 9.402344 5.222656 14.777344v24h32v-76zm0 0" fill="#2677ad"/><path d="m107.277344 329.222656-38.777344 38.777344h44v-24c-.007812-5.375-1.847656-10.589844-5.222656-14.777344zm0 0" fill="#d13e37"/><path d="m272.5 452.625v19.375h144v-64c13.628906-16.386719 17.925781-38.609375 11.382812-58.894531-50.648437 67.734375-109.992187 94.007812-155.382812 103.519531zm0 0" fill="#d13e37"/><path d="m431.699219 344h32.800781v-40c-.015625-4.007812-.53125-8-1.542969-11.878906-9.046875 18.082031-19.5 35.429687-31.257812 51.878906zm0 0" fill="#d13e37"/><path d="m8.5 112h16v16h-16zm0 0" fill="#b0b0ae"/></svg>