<svg xmlns="http://www.w3.org/2000/svg" xmlns:xlink="http://www.w3.org/1999/xlink" viewBox="0 0 2141 2025"><defs><style>.cls-1{fill:none;}.cls-2{fill:#f4f2f0;}.cls-3{fill:#333;}.cls-4{fill:#f3a1b6;}.cls-5{fill:#db5583;}.cls-6{fill:#434343;}.cls-7{fill:#b3b3b3;}.cls-8{fill:#999;}.cls-9{fill:#d2dddc;}.cls-10{fill:#a4b5b4;}.cls-11{fill:#a3d9ea;}.cls-12{fill:#00b4d5;}.cls-13{fill:#fbe098;}.cls-14{fill:#ee8a3c;}.cls-15{fill:#f0a3a3;}.cls-16{fill:#a7d8dd;}.cls-17{fill:#4d4d4d;}.cls-18{fill:#59bfc7;}.cls-19{fill:#13211f;}.cls-20{fill:#ffed00;}.cls-21{fill:#262626;}.cls-22{fill:#fff;}.cls-23{fill:url(#Nueva_muestra_de_motivo_3);}</style><pattern id="Nueva_muestra_de_motivo_3" data-name="Nueva muestra de motivo 3" width="800" height="800" patternUnits="userSpaceOnUse" viewBox="0 0 800 800"><rect class="cls-1" width="800" height="800"/><polygon class="cls-2" points="501.05 689.51 538.17 666.29 501.05 689.51 501.05 689.51"/><polygon class="cls-2" points="268.24 794.52 265.77 800 269.61 800 271.71 797.73 268.24 794.52"/><path class="cls-2" d="M800,546.75V800H735.81a20.89,20.89,0,0,0-3.91-18.38l-13.85-17.26a20.93,20.93,0,0,0-29.43-3.22L671.37,775a20.93,20.93,0,0,0-5.93,25h-118l-1.06-4.85-5.37.52,3.59-15.73a20.92,20.92,0,0,0,10.85-20.44l-2.14-22a20.93,20.93,0,0,0-22.87-18.8l-22,2.14A20.94,20.94,0,0,0,489.6,743.7l2.15,22a20.94,20.94,0,0,0,14.59,18l6.56,14.74-4.69.46-.68-7-26.87,2.62.53,5.48H470.14l-.14-1.43L455.38,800H358.16l8.8-9.51,1.47,1.35,4.07-4.4L294,714.78l-4.08,4.4.74.68L254.43,759l-1-1-1.51,1.63.27.24-8.59,11.81,4,3.67-14.14,7.77a20.93,20.93,0,0,0-22.48,5.48L200.36,800H117.92a21.21,21.21,0,0,0-1.59-7.12l-8.57-20.4a20.93,20.93,0,0,0-27.41-11.19L60,769.85a21,21,0,0,0-11.2,27.42L49.9,800H0V546.75l17.83,10a20.93,20.93,0,0,0,28.5-8l10.83-19.3a20.94,20.94,0,0,0-8-28.5L29.85,490.11a21,21,0,0,0-23.08,1.71L0,490.53v-3.62l12.55-22.37-5.09-2.85L12.71,452l2.6,1.46,11.26-20.05L18.72,429l2-3.56-7.56-5.93.22-.39-1.93-1.09-1,1.75L0,413.93V319.19l34-36.7,1.47,1.35,4.07-4.4L0,242.9V0H49.9l7.42,17.66A20.94,20.94,0,0,0,76.58,30.5L87.21,42.63l-4.35,1.83L80.15,38,55.25,48.46l2.26,5.38-10.08,4.4-1.16-2.75L25.07,64.4l3.48,8.29-3.76,1.59,2.32,9.32-.41.18.85,2,1.85-.77L50,134.17l-1.85.78,2.32,5.53L149.17,99l-2.33-5.53-.92.39L125.29,44.77l1.31-.55-.86-2-.33.14-7.2-12.71-5,2.09L112,15.62A21,21,0,0,0,117.92,0h82.44l-4.48,4.85A20.93,20.93,0,0,0,197,34.44l16.24,15a21,21,0,0,0,29.59-1.15l15-16.24A21,21,0,0,0,261.6,9.22L265.77,0h3.84L267,2.87,286.78,21.2l4-4.28,8.18,7.36-2,2.19,16.88,15.62,6.11-6.61,3,2.78,7.53-6,.33.31L332.25,31l-1.47-1.36L358.16,0h97.22l-8.27.81.87,9-4.06.4-.54,9.6-.45,0,.21,2.21,2-.2,5.17,53-2,.2.58,6L555.39,70.63l-.58-6-1,.09-5.17-53,1.41-.14-.22-2.2-.35,0L547.43,0h118a21.39,21.39,0,0,0,2.7,4.42L682,21.67a21,21,0,0,0,22,7l13.56,8.74-3.68,2.95L709.52,35l-21,16.89,3.65,4.55-8.49,7-1.87-2.33L663.83,75.47l5.63,7-3.19,2.56,4.81,8.33-.36.28,1.39,1.73,1.56-1.26L707,135.69l-1.56,1.25,3.76,4.68,83.45-67L788.91,70l-.78.62L754.79,29l1.1-.89-1.38-1.72-.28.22L743.81,16.42l-4.21,3.37L734,4.66A20.83,20.83,0,0,0,735.81,0H800V242.9l-39-36.12-4.08,4.4.74.68L721.43,251l-1-1-1.51,1.63.27.24-8.59,11.81,4,3.67-14.14,7.77a20.93,20.93,0,0,0-22.48,5.48l-15,16.24A20.93,20.93,0,0,0,664,326.44l16.24,15a21,21,0,0,0,29.59-1.15l15-16.24a21,21,0,0,0,3.72-22.85l6.64-14.69,3.47,3.2L734,294.87l19.82,18.33,4-4.28,8.18,7.36-2,2.19,16.88,15.62,6.11-6.61,3,2.78,7.53-6,.33.31,1.51-1.63-1.47-1.36,2.22-2.41v94.74l-36-20.2,1-1.74-5.23-2.94-52.35,93.32,5.23,2.93,25.71-45.82L727,459.65h0l-13.9,24.78,10.15,5.69h0l1.11.63,35.21,19.75-.69,1.24,1.93,1.09.18-.32,13.48,5.6,2.64-4.71L788,525.34a21,21,0,0,0,10.57,20.59ZM550.14,154.42,564,171.67a21,21,0,0,0,22,7.05l13.56,8.74-3.68,2.95L591.52,185l-21,16.89,3.65,4.55-8.49,7-1.87-2.33-17.93,14.39,5.63,7-3.19,2.56,4.81,8.33-.36.28,1.39,1.73,1.56-1.26L589,285.69l-1.56,1.25,3.76,4.68,83.45-67L670.91,220l-.78.62L636.79,179l1.1-.89-1.38-1.72-.28.22-10.42-10.23-4.21,3.37L616,154.66a20.93,20.93,0,0,0-2.1-23l-13.85-17.26a20.93,20.93,0,0,0-29.43-3.22L553.37,125A20.94,20.94,0,0,0,550.14,154.42ZM410.21,238.24l.14-3-23-1.08-.42,9-4.08-.2L381,252.39l-.45,0-.11,2.22,2,.09-2.5,53.23,25.53,1.2h0l43.73,2.05-71.26-3.35-.28,6,106.88,5,.29-6-1,0,2.5-53.22,1.42.06.1-2.21-.35,0-1-14.56-5.39-.26,5.82-15a21,21,0,0,0,13.67-18.67l1-22.1a20.94,20.94,0,0,0-19.93-21.9l-22.1-1a20.94,20.94,0,0,0-21.9,19.93l-1,22.1a20.94,20.94,0,0,0,11.87,19.87l4.37,15.53-4.71-.22.33-7-27-1.26-.28,5.82ZM230,187.69l23,11.16h0l45,21.85h0L323.35,233h0l.15.07,23.27-47.93,1.28.62,1-2-.32-.15,4.78-13.8-4.85-2.35L359.91,156a21,21,0,0,0,19.92-11.77l9.66-19.9a20.94,20.94,0,0,0-9.69-28l-19.9-9.66a20.94,20.94,0,0,0-28,9.69l-9.66,19.9a20.94,20.94,0,0,0,3.07,22.94l-2.09,16L319,153.11l3.06-6.3L297.76,135l-2.55,5.24-10-4.66,1.3-2.69-20.68-10L261.93,131l-3.67-1.78-5.47,7.9-.41-.2-1,2,1.81.88Zm-4.42,4.52,96.25,46.73,2.62-5.39-96.25-46.74Zm-141.7,90-3.75,1.62,2.42,9.3-.42.18.88,2,1.84-.8L106,343.43l-1.83.79,2.38,5.51,98.21-42.47-2.38-5.5-.92.39-21.15-48.9,1.31-.57-.88-2-.33.14L173,238.16l-5,2.14-1.39-16.07a21,21,0,0,0,4.08-22.78L162,181.15a20.94,20.94,0,0,0-27.53-10.91L114.14,179a20.94,20.94,0,0,0-10.91,27.53l8.78,20.3a21,21,0,0,0,19.39,12.63l10.76,12-4.33,1.87L135.05,247l-24.78,10.71,2.31,5.35-10,4.51-1.19-2.74-21.11,9.13Zm81.88,284.45-21.45-5.42a20.94,20.94,0,0,0-25.43,15.18l-5.41,21.45a21,21,0,0,0,7.67,21.84l1.2,16.08-4.57-1.15,1.71-6.79-26.18-6.6-1.42,5.65-10.71-2.54.73-2.9-22.3-5.62-2.2,8.72-4-1-3.75,8.86-.44-.12-.54,2.15,1.94.49-13,51.67-1.94-.49-1.47,5.82,103.75,26.18,1.47-5.82-1-.25,13-51.66,1.38.35.54-2.15-.35-.09L154.89,644l-5.23-1.32,8.7-13.59a21,21,0,0,0,17.11-15.58l5.41-21.45A20.93,20.93,0,0,0,165.71,566.63ZM207.17,442.4l10.93-11.87a20.94,20.94,0,0,0,19.56-12.36L246.73,398a20.94,20.94,0,0,0-10.52-27.68L216,361.25a20.94,20.94,0,0,0-27.68,10.52l-9.06,20.17A20.94,20.94,0,0,0,183,414.78l-1.62,16.05-4.3-1.93,2.86-6.39-24.62-11.06L153,416.76l-10.1-4.36,1.22-2.72-21-9.43-3.68,8.21-3.73-1.67L109.76,416l-.24-.1-1.31,2.92,1.83.82-20.9,46.52-1.83-.82-2.46,5.48,97.61,43.85,2.45-5.48-32.53-14.61L184,508.73l20.9-46.51,1.3.58,1.31-2.93-.18-.08,4.76-15.18Zm183.9,190.68L389.73,611a20.94,20.94,0,0,0-22.17-19.63l-22.08,1.34A21,21,0,0,0,327,606.64l-15,6-.29-4.71,7-.42-1.64-26.95-5.81.35-.83-11,3-.18-1.39-23-9,.55-.24-4.08-9.58-.89,0-.45-2.22.13.13,2-53.19,3.23,2.95,48.53-3.07-50.53-6,.36,6.49,106.81,6-.37-.06-1,53.18-3.24.09,1.42,2.21-.13,0-.36,14.37-2.6-.33-5.38L329.33,645a20.94,20.94,0,0,0,20,11.59l22.08-1.34A20.94,20.94,0,0,0,391.07,633.08Zm35.07-169.14-19.29-10.83a21,21,0,0,0-23.08,1.71l-15.85-3,2.31-4.12,6.11,3.42,13.21-23.55-5.09-2.85,5.25-9.67,2.6,1.46,11.26-20.05L395.72,392l2-3.56-7.56-5.93.22-.39-1.93-1.09-1,1.75L341,356.73l1-1.74-5.23-2.94-52.35,93.32,5.23,2.93,25.71-45.82L304,422.65h0l-13.9,24.78,10.15,5.69h0l1.11.63,35.21,19.75-.69,1.24,1.93,1.09.18-.32,13.48,5.6,2.64-4.71L365,488.34a21,21,0,0,0,10.57,20.59l19.3,10.82a20.93,20.93,0,0,0,28.5-8l10.83-19.3A20.94,20.94,0,0,0,426.14,463.94ZM571.59,652.46l-3.18-5.08-.85.53L539.3,602.73l1.21-.75-1.18-1.88-.3.19-9.15-11.38-4.57,2.86-3.79-15.68a21,21,0,0,0,.6-23.14L510.39,534.2a20.94,20.94,0,0,0-28.85-6.65l-18.76,11.73a21,21,0,0,0-6.65,28.86l11.74,18.76a20.93,20.93,0,0,0,21.06,9.57l12.45,10.27-4,2.5-3.72-5.93-22.89,14.32,3.09,4.94-9.24,6L463,626l-19.5,12.2,4.77,7.63L444.85,648l3.79,8.83-.38.24,1.17,1.88,1.7-1.06,28.26,45.17,16.68-10.43L477.7,704.12l3.18,5.09Zm3.29-136.66,70.65-80.35-4.51-4-.66.75-38.29-33.68.93-1.06-2.41-2.12-.13.15-13.1-9-3.56,4.05-8.13-13.94a21,21,0,0,0-6-22.34L553,339.68a20.93,20.93,0,0,0-29.55,1.9l-14.61,16.61a21,21,0,0,0,1.9,29.55l16.62,14.61a20.93,20.93,0,0,0,22.92,3.13l14.87,6.28L562,415.3l-5.25-4.62L539,431l4.37,3.85-7.14,8.36-2.24-2-15.19,17.27,6.76,5.95-2.7,3.06,7,8.38-.17.19,2.41,2.12,1.32-1.5,38.3,33.67-1.32,1.5Zm168.44,166-1.45-5.83-1,.25L728,624.46l1.38-.34-.54-2.15-.35.09-5.17-13.66-5.23,1.31,1.25-16.09a21,21,0,0,0,7.74-21.81l-5.35-21.46a21,21,0,0,0-25.38-15.26l-21.47,5.35a20.94,20.94,0,0,0-15.25,25.39L665,587.29a21,21,0,0,0,17.06,15.63l8.66,13.61-4.58,1.14-1.7-6.79-26.19,6.53,1.41,5.66L649,625.88l-.72-2.9L626,628.55l2.18,8.73-4,1,.88,9.57-.44.11.53,2.15,2-.49L640,701.32l-1.94.48,1.45,5.82Z"/><polygon class="cls-2" points="793.23 484.67 790.92 488.79 800 490.52 800 486.91 799.34 488.09 793.23 484.67"/><polygon class="cls-2" points="481.22 0.32 481.19 0 470.14 0 470.29 1.55 481.22 0.32"/><polygon class="cls-3" points="41.93 60.65 47.43 58.24 46.27 55.49 25.07 64.4 28.55 72.69 44.23 66.11 41.93 60.65"/><polygon class="cls-4" points="145.77 93.96 145.92 93.9 125.29 44.77 125.13 44.84 145.77 93.96"/><path class="cls-4" d="M56.12,82.68a3.73,3.73,0,0,1,.75-.45,3.41,3.41,0,0,1,4.46,1.82,5,5,0,0,1,.16.51l3,.67a22.6,22.6,0,1,1-.5,3l-3.16-.7a3.46,3.46,0,0,1-1.33,1,3.23,3.23,0,0,1-.85.22l14.93,35.55L52,133.35l67.74-28.45L99.09,55.78l-9.76,4.09.5,1.19L64.93,71.51l-.49-1.18L53,75.15Z"/><path class="cls-5" d="M73.59,124.28,58.66,88.73a3.39,3.39,0,0,1-2.54-6L53,75.15,29.4,85.05,50,134.17l1.94-.82Z"/><polygon class="cls-5" points="145.77 93.96 125.13 44.84 99.09 55.78 119.72 104.9 145.77 93.96"/><polygon class="cls-3" points="119.72 104.9 51.98 133.35 50.03 134.17 48.19 134.95 50.52 140.48 149.17 99.04 146.84 93.51 145.92 93.9 145.77 93.96 119.72 104.9"/><path class="cls-6" d="M61.49,84.56l3,.67a22.6,22.6,0,1,1-.5,3l-3.16-.7A3.43,3.43,0,0,0,61.49,84.56Zm11,11.81a15.28,15.28,0,1,0,8.17-20A15.28,15.28,0,0,0,72.45,96.37Z"/><path class="cls-7" d="M80.62,76.36a15.28,15.28,0,1,1-8.17,20A15.29,15.29,0,0,1,80.62,76.36Zm-3.14,17.9A9.83,9.83,0,1,0,82.73,81.4,9.82,9.82,0,0,0,77.48,94.26Z"/><path class="cls-6" d="M77.48,94.26A9.83,9.83,0,1,0,82.73,81.4,9.82,9.82,0,0,0,77.48,94.26Z"/><path class="cls-7" d="M60.84,87.49a3.43,3.43,0,0,0,.65-2.93,5,5,0,0,0-.16-.51,3.41,3.41,0,0,0-4.46-1.82,3.73,3.73,0,0,0-.75.45,3.39,3.39,0,0,0,2.54,6,3.23,3.23,0,0,0,.85-.22A3.46,3.46,0,0,0,60.84,87.49Z"/><path class="cls-6" d="M57.32,17.66,49.9,0h5.42l6.13,14.58a17.18,17.18,0,0,0,22.49,9.19l18.11-7.61A17.15,17.15,0,0,0,112.56,0h5.36A21,21,0,0,1,112,15.62l1.22,16.08,5-2.09,7.2,12.71L88.47,57.83l.86,2,.5,1.19L64.93,71.51l-.49-1.18-.86-2L27.11,83.6l-2.32-9.32,3.76-1.59,15.67-6.58-2.29-5.46,5.5-2.41,10.08-4.4-2.26-5.38L80.15,38l2.71,6.45,4.35-1.83L76.58,30.5A20.94,20.94,0,0,1,57.32,17.66ZM76.59,46,63.46,51.53l5,12L81.62,58Z"/><path class="cls-8" d="M83.94,23.77l18.11-7.61A17.15,17.15,0,0,0,112.56,0h-4.4A14.46,14.46,0,0,1,99.3,13l-15.71,6.6a14.48,14.48,0,0,1-19-7.74L59.66,0H55.32l6.13,14.58A17.18,17.18,0,0,0,83.94,23.77Z"/><path class="cls-9" d="M83.59,19.58,99.3,13a14.46,14.46,0,0,0,8.86-13H91.92a10.41,10.41,0,0,1-5.17,4.69A10.49,10.49,0,0,1,73.46,0H59.66l5,11.84A14.48,14.48,0,0,0,83.59,19.58Z"/><path class="cls-10" d="M86.75,4.69A10.41,10.41,0,0,0,91.92,0H73.46A10.49,10.49,0,0,0,86.75,4.69Z"/><polygon class="cls-3" points="64.44 70.33 63.58 68.29 27.11 83.6 26.7 83.78 27.55 85.82 29.4 85.05 52.96 75.15 64.44 70.33"/><polygon class="cls-3" points="89.33 59.88 99.09 55.78 125.13 44.84 125.29 44.77 126.6 44.22 125.74 42.18 125.41 42.32 88.47 57.83 89.33 59.88"/><polygon class="cls-7" points="63.46 51.52 68.49 63.51 81.62 58 76.59 46.01 63.46 51.52"/><polygon class="cls-3" points="303.38 28.29 298.92 24.28 296.89 26.47 313.77 42.09 319.88 35.48 307.4 23.94 303.38 28.29"/><path class="cls-11" d="M322,1.44,323.35,0h-3.24a3.24,3.24,0,0,1,1.36.76A3,3,0,0,1,322,1.44Z"/><path class="cls-11" d="M302.88,3.79,312,12.25l5.54-6a3.67,3.67,0,0,1-.72-.49,3.41,3.41,0,0,1-.18-4.82,3.34,3.34,0,0,1,.4-.35L316.93,0H300.67l3.08,2.85Z"/><path class="cls-12" d="M321.66,5.57a3.4,3.4,0,0,1-4.1.68l-5.54,6L330.78,29.6,358.16,0H323.35L322,1.44A3.4,3.4,0,0,1,321.66,5.57Z"/><path class="cls-6" d="M318.2,0h-1.27l.13.59A3.45,3.45,0,0,1,318.2,0Z"/><path class="cls-7" d="M316.66.94a3.41,3.41,0,0,0,.18,4.82,3.67,3.67,0,0,0,.72.49A3.39,3.39,0,0,0,322,1.44a3,3,0,0,0-.55-.68A3.24,3.24,0,0,0,320.11,0H318.2a3.45,3.45,0,0,0-1.14.59A3.34,3.34,0,0,0,316.66.94Z"/><path class="cls-6" d="M197,34.44l16.24,15a21,21,0,0,0,29.59-1.15l15-16.24A21,21,0,0,0,261.6,9.22L265.77,0H246.69l5.73,5.3a17.18,17.18,0,0,1,1,24.28L240,44a17.18,17.18,0,0,1-24.28.94L201.34,31.61a17.18,17.18,0,0,1-1-24.28L207.17,0h-6.81l-4.48,4.85A20.93,20.93,0,0,0,197,34.44Z"/><path class="cls-8" d="M201.34,31.61l14.41,13.33A17.18,17.18,0,0,0,240,44l13.34-14.42a17.18,17.18,0,0,0-1-24.28L246.69,0H240.8l7.95,7.36a14.48,14.48,0,0,1,.8,20.46L238,40.33a14.47,14.47,0,0,1-20.45.8L205,29.55a14.48,14.48,0,0,1-.79-20.46L212.62,0h-5.45l-6.78,7.33A17.18,17.18,0,0,0,201.34,31.61Z"/><path class="cls-9" d="M204.21,9.09,212.62,0H240.8l7.95,7.36a14.48,14.48,0,0,1,.8,20.46L238,40.33a14.47,14.47,0,0,1-20.45.8L205,29.55A14.48,14.48,0,0,1,204.21,9.09Zm15.44,17a10.49,10.49,0,1,0-.58-14.82A10.49,10.49,0,0,0,219.65,26Z"/><path class="cls-10" d="M234.47,25.46a10.49,10.49,0,1,0-14.82.58A10.49,10.49,0,0,0,234.47,25.46Z"/><polygon class="cls-3" points="302.88 3.79 301.37 5.42 330.41 32.28 330.74 32.59 332.25 30.96 330.77 29.6 312.02 12.25 302.88 3.79"/><polygon class="cls-7" points="286.17 12.47 294.99 2.92 291.83 0 278.3 0 275.71 2.8 286.17 12.47"/><polygon class="cls-6" points="286.77 21.2 290.73 16.93 298.92 24.28 303.38 28.29 307.4 23.94 319.88 35.48 322.88 38.26 330.41 32.28 301.37 5.42 302.88 3.79 303.75 2.85 300.67 0 291.83 0 294.99 2.92 286.17 12.47 275.71 2.8 278.3 0 269.61 0 266.95 2.87 286.77 21.2"/><path class="cls-6" d="M210,428.69l-20.18-9.06a20.83,20.83,0,0,1-6.76-4.85l-1.62,16.05,25.75,11.57,10.93-11.87A20.84,20.84,0,0,1,210,428.69Z"/><polygon class="cls-3" points="137.36 410.02 142.87 412.4 144.09 409.68 123.11 400.25 119.43 408.46 134.93 415.43 137.36 410.02"/><path class="cls-13" d="M183.85,508.66l-25.77-11.57L179,450.57l-45.64-20.5-2.41,5.36a3.72,3.72,0,0,1,.85.24,3.41,3.41,0,0,1,1.71,4.5,3.59,3.59,0,0,1-.27.47l1.57,2.65a22.65,22.65,0,1,1-2.51,1.66l-1.65-2.79a3.32,3.32,0,0,1-1.65-.28,2.94,2.94,0,0,1-.73-.47l-15.8,35.17,39.93,17.95L184,508.73l20.9-46.51-.15-.07Z"/><path class="cls-14" d="M128.25,441.41a3.38,3.38,0,0,1,2.68-6l2.41-5.36L110,419.59l-20.9,46.52,23.31,10.47Z"/><polygon class="cls-14" points="183.85 508.67 204.75 462.15 178.98 450.57 158.08 497.09 183.85 508.67"/><polygon class="cls-15" points="177.12 428.9 170.64 443.31 207.33 459.79 212.09 444.61 207.17 442.4 181.42 430.83 177.12 428.9"/><path class="cls-15" d="M167.73,440l-17.33-7.79,7-15.5,17.33,7.78Zm-2.63-5.76,3.54-7.89L160,422.5l-3.55,7.89Z"/><polygon class="cls-15" points="146.01 432.24 152.97 416.76 142.87 412.4 137.36 410.02 134.93 415.43 119.43 408.46 115.7 406.79 109.76 415.95 146.01 432.24"/><polygon class="cls-3" points="89.14 466.11 87.31 465.29 84.86 470.77 182.46 514.62 184.91 509.14 152.38 494.53 112.44 476.58 89.14 466.11"/><path class="cls-6" d="M133.22,440.64l1.57,2.65a22.65,22.65,0,1,1-2.51,1.66l-1.65-2.79A3.39,3.39,0,0,0,133.22,440.64Zm-1.16,16.07A15.28,15.28,0,1,0,152.27,449,15.29,15.29,0,0,0,132.06,456.71Z"/><path class="cls-7" d="M152.27,449a15.28,15.28,0,1,1-20.21,7.68A15.27,15.27,0,0,1,152.27,449ZM137,458.94A9.83,9.83,0,1,0,150,454,9.83,9.83,0,0,0,137,458.94Z"/><path class="cls-6" d="M137,458.94A9.83,9.83,0,1,0,150,454,9.83,9.83,0,0,0,137,458.94Z"/><path class="cls-7" d="M127.27,437.38a3.39,3.39,0,0,0,1,4,2.94,2.94,0,0,0,.73.47,3.32,3.32,0,0,0,1.65.28,3.39,3.39,0,0,0,2.59-1.52,3.59,3.59,0,0,0,.27-.47,3.41,3.41,0,0,0-1.71-4.5,3.72,3.72,0,0,0-.85-.24A3.4,3.4,0,0,0,127.27,437.38Z"/><path class="cls-15" d="M183,414.78a20.94,20.94,0,0,1-3.75-22.84l9.06-20.17A20.94,20.94,0,0,1,216,361.25l20.18,9.06A20.94,20.94,0,0,1,246.73,398l-9.07,20.18A20.92,20.92,0,0,1,210,428.69l-20.18-9.06A20.83,20.83,0,0,1,183,414.78Zm10,.79,17.91,8.05A17.17,17.17,0,0,0,233.61,415l8-17.91A17.18,17.18,0,0,0,233,374.37l-17.91-8.05A17.18,17.18,0,0,0,192.4,375l-8,17.91A17.17,17.17,0,0,0,193,415.57Z"/><path class="cls-8" d="M184.36,392.86l8-17.91a17.18,17.18,0,0,1,22.72-8.63L233,374.37a17.18,17.18,0,0,1,8.63,22.71l-8,17.91a17.17,17.17,0,0,1-22.71,8.63L193,415.57A17.17,17.17,0,0,1,184.36,392.86Zm11.45,19.6,15.55,7a14.47,14.47,0,0,0,19.13-7.27l7-15.55a14.48,14.48,0,0,0-7.27-19.14l-15.55-7a14.47,14.47,0,0,0-19.14,7.27l-7,15.55A14.47,14.47,0,0,0,195.81,412.46Z"/><path class="cls-9" d="M188.54,393.32l7-15.55a14.47,14.47,0,0,1,19.14-7.27l15.55,7a14.48,14.48,0,0,1,7.27,19.14l-7,15.55a14.47,14.47,0,0,1-19.13,7.27l-15.55-7A14.47,14.47,0,0,1,188.54,393.32Zm20.31,11.29a10.49,10.49,0,1,0-5.27-13.86A10.48,10.48,0,0,0,208.85,404.61Z"/><path class="cls-10" d="M208.85,404.61a10.49,10.49,0,1,0-5.27-13.86A10.48,10.48,0,0,0,208.85,404.61Z"/><polygon class="cls-3" points="170.64 443.31 169.74 445.32 145.11 434.25 146.01 432.24 109.76 415.95 109.52 415.85 108.21 418.77 110.04 419.6 133.34 430.07 178.98 450.57 204.75 462.15 204.9 462.22 206.2 462.8 207.51 459.87 207.33 459.79 170.64 443.31"/><polygon class="cls-6" points="160 422.5 156.45 430.39 165.1 434.27 168.64 426.38 160 422.5"/><path class="cls-6" d="M153,416.76l2.39-5.31L180,422.51l-2.86,6.39-6.48,14.41-.9,2-24.63-11.07.9-2Zm-2.57,15.48L167.73,440l7-15.51-17.33-7.78Z"/><path class="cls-16" d="M359.91,156a20.93,20.93,0,0,1-8.06-2.08L332,144.21a20.93,20.93,0,0,1-6.62-5l-2.09,16,25.39,12.33Z"/><polygon class="cls-3" points="279.81 133.06 285.25 135.6 286.56 132.91 265.87 122.86 261.93 130.96 277.23 138.39 279.81 133.06"/><path class="cls-3" d="M272.64,158.26a3.66,3.66,0,0,1,.83.27,3.32,3.32,0,0,1,1.3,5l1.49,2.71a22.29,22.29,0,1,1-2.56,1.57L272.14,165a3.4,3.4,0,0,1-1.64-.33,3.33,3.33,0,0,1-.73-.49l-16.84,34.69,45,21.85,23.27-47.93,25.42,12.33L323.35,233l.15.07,23.27-47.93,1.28.62,1-2-.32-.15-36-17.5-1.53,3.15-24.29-11.79,1.53-3.15-35.58-17.28-.41-.2-1,2,1.81.88,23,11.15Z"/><path class="cls-17" d="M252.93,198.85l16.84-34.69a3.39,3.39,0,0,1,2.87-5.9l3.56-7.35-23-11.15L230,187.69l23,11.16Z"/><polygon class="cls-17" points="321.21 172.77 297.94 220.7 297.94 220.7 323.35 233.04 323.35 233.04 346.63 185.1 321.21 172.77"/><polygon class="cls-18" points="295.21 140.26 285.25 135.6 279.81 133.06 277.23 138.39 261.93 130.96 258.26 129.18 252.79 137.08 288.37 154.36 295.21 140.26"/><path class="cls-18" d="M309.28,164l-17.09-8.3,7.42-15.29,17.09,8.3Zm-.87-3.65,5.13-10.57-12.81-6.22-5.13,10.57Z"/><polygon class="cls-18" points="348.7 183.65 353.48 169.85 348.63 167.5 323.24 155.17 318.99 153.11 312.66 166.15 348.7 183.65"/><polygon class="cls-3" points="324.4 233.55 228.15 186.81 225.53 192.21 321.78 238.94 324.4 233.55"/><path class="cls-6" d="M272.14,165l1.56,2.83a23.08,23.08,0,0,1,2.56-1.57l-1.49-2.71A3.4,3.4,0,0,1,272.14,165Z"/><path class="cls-7" d="M273.7,167.81a23.08,23.08,0,0,1,2.56-1.57,22.29,22.29,0,1,1-2.56,1.57Zm-.57,11.75a15.28,15.28,0,1,0,20.43-7.07A15.29,15.29,0,0,0,273.13,179.56Z"/><path class="cls-19" d="M293.56,172.49a15.28,15.28,0,1,1-20.43,7.07A15.29,15.29,0,0,1,293.56,172.49ZM278,182a9.83,9.83,0,1,0,13.13-4.55A9.82,9.82,0,0,0,278,182Z"/><path class="cls-7" d="M278,182a9.83,9.83,0,1,0,13.13-4.55A9.82,9.82,0,0,0,278,182Z"/><path class="cls-7" d="M272.14,165a3.39,3.39,0,0,0,1.33-6.45,3.66,3.66,0,0,0-.83-.27,3.39,3.39,0,0,0-2.87,5.9,3.33,3.33,0,0,0,.73.49A3.4,3.4,0,0,0,272.14,165Z"/><path class="cls-18" d="M325.33,139.17a20.94,20.94,0,0,1-3.07-22.94l9.66-19.9a20.94,20.94,0,0,1,28-9.69l19.9,9.66a20.94,20.94,0,0,1,9.69,28l-9.66,19.9a20.92,20.92,0,0,1-28,9.69L332,144.21A20.93,20.93,0,0,1,325.33,139.17Zm9.92,1.09,17.67,8.58a17.19,17.19,0,0,0,23-8l8.57-17.66a17.17,17.17,0,0,0-7.95-23l-17.66-8.58a17.19,17.19,0,0,0-23,7.95L327.3,117.3A17.17,17.17,0,0,0,335.25,140.26Z"/><path class="cls-8" d="M327.3,117.3l8.58-17.67a17.19,17.19,0,0,1,23-7.95l17.66,8.58a17.17,17.17,0,0,1,7.95,23l-8.57,17.66a17.19,17.19,0,0,1-23,8l-17.67-8.58A17.17,17.17,0,0,1,327.3,117.3Zm10.86,19.93,15.34,7.44a14.47,14.47,0,0,0,19.34-6.7l7.45-15.33a14.48,14.48,0,0,0-6.7-19.35l-15.34-7.44a14.46,14.46,0,0,0-19.34,6.69l-7.45,15.34A14.49,14.49,0,0,0,338.16,137.23Z"/><path class="cls-9" d="M331.46,117.88l7.45-15.34a14.46,14.46,0,0,1,19.34-6.69l15.34,7.44a14.48,14.48,0,0,1,6.7,19.35L372.84,138a14.47,14.47,0,0,1-19.34,6.7l-15.34-7.44A14.49,14.49,0,0,1,331.46,117.88Zm20,11.9a10.49,10.49,0,1,0-4.85-14A10.5,10.5,0,0,0,351.43,129.78Z"/><path class="cls-10" d="M351.43,129.78a10.49,10.49,0,1,0-4.85-14A10.5,10.5,0,0,0,351.43,129.78Z"/><polygon class="cls-19" points="300.73 143.51 295.6 154.08 308.41 160.3 313.54 149.73 300.73 143.51"/><path class="cls-16" d="M288.37,154.36l6.84-14.1,2.55-5.24,24.29,11.79-3.06,6.3-6.33,13-1.53,3.15-24.29-11.79Zm3.82,1.29,17.09,8.3,7.42-15.29-17.09-8.3Z"/><path class="cls-12" d="M168.07,240.3l-25.91,11.21-10.76-12A21,21,0,0,1,112,226.85l-8.78-20.3A20.94,20.94,0,0,1,114.14,179l20.31-8.78A20.94,20.94,0,0,1,162,181.15l8.78,20.3a21,21,0,0,1-4.08,22.78Zm-29.37-7.62,18-7.8a17.18,17.18,0,0,0,9-22.59l-7.8-18a17.18,17.18,0,0,0-22.59-9l-18,7.79a17.18,17.18,0,0,0-9,22.59l7.79,18A17.19,17.19,0,0,0,138.7,232.68Z"/><polygon class="cls-3" points="97.08 269.99 102.55 267.53 101.36 264.79 80.25 273.92 83.83 282.18 99.43 275.43 97.08 269.99"/><path class="cls-17" d="M114.1,297.9a3.39,3.39,0,0,1-2.6-6l-3.24-7.5L84.8,294.52,106,343.43l23.45-10.14Z"/><polygon class="cls-17" points="175.33 313.43 201.26 302.22 180.11 253.31 154.18 264.52 175.33 313.43"/><path class="cls-20" d="M122.28,275.36l-6.75-15.6L133,252.21l6.74,15.61ZM118.64,261l4.67,10.79,13.07-5.66-4.67-10.78Z"/><polygon class="cls-20" points="180.36 250.79 173.02 238.16 168.07 240.31 142.16 251.51 137.83 253.38 143.59 266.69 180.36 250.79"/><polygon class="cls-20" points="82.5 293.1 118.8 277.41 112.58 263.02 102.55 267.53 97.08 269.99 99.43 275.43 83.83 282.18 80.08 283.8 82.5 293.1"/><path class="cls-6" d="M116.26,296.64l3.17.66a22.52,22.52,0,0,1,.47-3l-3-.64A3.38,3.38,0,0,1,116.26,296.64Z"/><path class="cls-7" d="M119.43,297.3a22.65,22.65,0,1,1,1.77,11A22.52,22.52,0,0,1,119.43,297.3Zm8.53,8.1a15.28,15.28,0,1,0,8-20.1A15.3,15.3,0,0,0,128,305.4Z"/><path class="cls-19" d="M135.93,285.3a15.28,15.28,0,1,1-8,20.1A15.28,15.28,0,0,1,135.93,285.3Zm-3,17.93a9.83,9.83,0,1,0,5.12-12.92A9.83,9.83,0,0,0,133,303.23Z"/><path class="cls-7" d="M133,303.23a9.83,9.83,0,1,0,5.12-12.92A9.83,9.83,0,0,0,133,303.23Z"/><path class="cls-7" d="M110.47,295.9a3.39,3.39,0,0,0,3.63,2,3.25,3.25,0,0,0,.85-.23,3.35,3.35,0,0,0,1.31-1,3.38,3.38,0,0,0,.62-2.94,3.33,3.33,0,0,0-.16-.51,3.41,3.41,0,0,0-4.48-1.77,3.29,3.29,0,0,0-.74.46A3.39,3.39,0,0,0,110.47,295.9Z"/><path class="cls-8" d="M116.11,223.73l-7.79-18a17.18,17.18,0,0,1,9-22.59l18-7.79a17.18,17.18,0,0,1,22.59,9l7.8,18a17.18,17.18,0,0,1-9,22.59l-18,7.8A17.19,17.19,0,0,1,116.11,223.73Zm22.19,4.76L154,221.73a14.49,14.49,0,0,0,7.54-19l-6.77-15.64a14.48,14.48,0,0,0-19-7.55L120,186.27a14.48,14.48,0,0,0-7.54,19L119.27,221A14.47,14.47,0,0,0,138.3,228.49Z"/><path class="cls-9" d="M119.27,221,112.5,205.3a14.48,14.48,0,0,1,7.54-19l15.65-6.77a14.48,14.48,0,0,1,19,7.55l6.77,15.64a14.49,14.49,0,0,1-7.54,19l-15.65,6.76A14.47,14.47,0,0,1,119.27,221Zm22-7.38a10.49,10.49,0,1,0-13.79-5.46A10.47,10.47,0,0,0,141.31,213.57Z"/><path class="cls-10" d="M141.31,213.57a10.49,10.49,0,1,0-13.79-5.46A10.47,10.47,0,0,0,141.31,213.57Z"/><path class="cls-3" d="M143.59,266.69l36.77-15.9.33-.14.88,2-1.31.57,21.15,48.9.92-.39,2.38,5.5L106.5,349.73l-2.38-5.51,1.83-.79,23.45-10.14L114.1,297.9a3.25,3.25,0,0,0,.85-.23,3.35,3.35,0,0,0,1.31-1l3.17.66a22.72,22.72,0,1,0,.47-3l-3-.64a3.33,3.33,0,0,0-.16-.51,3.41,3.41,0,0,0-4.48-1.77,3.29,3.29,0,0,0-.74.46l-3.24-7.5L84.8,294.52l-1.84.8-.88-2,.42-.18,36.3-15.69,1.39,3.21L145,269.9Zm36.52-13.38-25.93,11.21,21.15,48.91,25.93-11.21Z"/><polygon class="cls-19" points="136.38 266.09 131.71 255.31 118.64 260.96 123.31 271.75 136.38 266.09"/><path class="cls-5" d="M118.8,277.41,112.58,263l-2.31-5.35L135.05,247l2.78,6.42,5.76,13.31L145,269.9l-24.78,10.72Zm-3.27-17.65,6.75,15.6,17.43-7.54L133,252.21Z"/><polygon class="cls-3" points="15.57 446.75 12.71 452.02 15.31 453.48 26.57 433.43 18.72 429.02 10.4 443.85 15.57 446.75"/><polygon class="cls-18" points="0 462.09 0 464.82 4.19 467.18 0 474.65 0 478.73 7.1 466.08 0 462.09"/><polygon class="cls-18" points="12.71 452.02 15.57 446.75 10.4 443.85 18.72 429.02 20.71 425.46 13.15 419.53 0 442.97 0 457.51 7.46 461.69 12.71 452.02"/><path class="cls-6" d="M46.33,548.74l10.83-19.3a20.94,20.94,0,0,0-8-28.5L29.85,490.11a21,21,0,0,0-23.08,1.71L0,490.53v20.21l5.09-9.08a17.18,17.18,0,0,1,23.39-6.58l17.13,9.61a17.18,17.18,0,0,1,6.58,23.39l-9.61,17.13a17.17,17.17,0,0,1-23.39,6.57l-17.13-9.6A18.56,18.56,0,0,1,0,540.79v6l17.83,10A20.93,20.93,0,0,0,46.33,548.74Z"/><path class="cls-8" d="M19.19,551.78a17.17,17.17,0,0,0,23.39-6.57l9.61-17.13a17.18,17.18,0,0,0-6.58-23.39l-17.13-9.61a17.18,17.18,0,0,0-23.39,6.58L0,510.74v8.17l8-14.16a14.47,14.47,0,0,1,19.71-5.55l14.86,8.34a14.48,14.48,0,0,1,5.55,19.71l-8.35,14.87A14.47,14.47,0,0,1,20,547.66L5.15,539.32A14.39,14.39,0,0,1,0,534.44v6.35a18.56,18.56,0,0,0,2.06,1.39Z"/><path class="cls-9" d="M0,534.44V518.91l8-14.16a14.47,14.47,0,0,1,19.71-5.55l14.86,8.34a14.48,14.48,0,0,1,5.55,19.71l-8.35,14.87A14.47,14.47,0,0,1,20,547.66L5.15,539.32A14.39,14.39,0,0,1,0,534.44Zm18.62-1.73a10.49,10.49,0,1,0-4-14.28A10.48,10.48,0,0,0,18.62,532.71Z"/><path class="cls-10" d="M18.62,532.71a10.49,10.49,0,1,0-4-14.28A10.48,10.48,0,0,0,18.62,532.71Z"/><polygon class="cls-3" points="13.37 419.14 11.44 418.05 10.46 419.8 10.64 419.91 0 438.88 0 442.97 13.15 419.53 13.37 419.14"/><polygon class="cls-6" points="0 464.82 0 474.65 4.19 467.18 0 464.82"/><polygon class="cls-6" points="7.46 461.69 0 457.51 0 462.09 7.1 466.08 0 478.73 0 486.91 12.55 464.55 7.46 461.69"/><path class="cls-21" d="M10.64,419.91l-.18-.11L0,413.93H0l.5.28s-.32,1.19.79,3.45,3.15,4.5,4,5.84-.9,6.6-.9,6.6c.57-2,.15-4-2.84-8.69C1,420.63.51,419.81,0,419v19.88Z"/><path class="cls-22" d="M4.37,430.11s1.72-5.25.9-6.6-2.87-3.59-4-5.84S.5,414.22.5,414.22l-.5-.28V419c.51.81,1,1.63,1.53,2.42C4.52,426.09,4.94,428.15,4.37,430.11Z"/><polygon class="cls-3" points="387.37 234.18 386.95 243.17 403.93 243.97 404.21 238.04 410.21 238.24 410.35 235.26 387.37 234.18"/><path class="cls-4" d="M457.91,258.23l-10.58-.49-.06,1.28-27-1.27.06-1.28-12.43-.59-.39,8.16a3.25,3.25,0,0,1,.88-.08,3.4,3.4,0,0,1,3.24,3.56,4.85,4.85,0,0,1-.08.53l2.43,1.89a22.44,22.44,0,1,1-1.73,2.46l-2.55-2a3.33,3.33,0,0,1-1.63.35,3,3,0,0,1-.86-.17l-1.81,38.52,43.73,2.05,6.24.3Z"/><polygon class="cls-4" points="483.62 312.78 483.79 312.79 486.29 259.57 486.13 259.56 483.62 312.78"/><path class="cls-5" d="M404.85,267.2a3.41,3.41,0,0,1,2.69-3.16l.39-8.16-25.53-1.2-2.5,53.23,25.53,1.2h0l1.81-38.52A3.4,3.4,0,0,1,404.85,267.2Z"/><polygon class="cls-5" points="483.62 312.78 486.13 259.56 457.9 258.23 455.4 311.46 483.62 312.78"/><path class="cls-6" d="M404.21,238l6,.2,11,.36.28-5.82,27,1.26-.33,7,4.71.22-4.37-15.53a20.94,20.94,0,0,1-11.87-19.87l1-22.1a20.94,20.94,0,0,1,21.9-19.93l22.1,1a20.94,20.94,0,0,1,19.93,21.9l-1,22.1a21,21,0,0,1-13.67,18.67l-5.82,15,5.39.26,1,14.56-40-1.88-.11,2.22-.06,1.28-27-1.27.06-1.28.11-2.22L381,252.39l1.91-9.42,4.08.2,17,.79ZM458,222.82l19.62.93a17.2,17.2,0,0,0,18-16.36l.92-19.62a17.19,17.19,0,0,0-16.36-18l-19.61-.92a17.18,17.18,0,0,0-18,16.36l-.93,19.61A17.18,17.18,0,0,0,458,222.82Zm-30.43,16.25-.61,13,14.22.67.61-13Z"/><polygon class="cls-3" points="455.4 311.46 449.16 311.16 377.9 307.81 377.62 313.81 484.5 318.83 484.79 312.84 483.79 312.79 483.62 312.78 455.4 311.46"/><path class="cls-6" d="M411.58,268.05l2.43,1.89a22.44,22.44,0,1,1-1.73,2.46l-2.55-2A3.4,3.4,0,0,0,411.58,268.05Zm4.81,15.37a15.28,15.28,0,1,0,16-14.55A15.28,15.28,0,0,0,416.39,283.42Z"/><path class="cls-7" d="M432.38,268.87a15.28,15.28,0,1,1-16,14.55A15.28,15.28,0,0,1,432.38,268.87Zm-10.53,14.81a9.82,9.82,0,1,0,10.27-9.35A9.81,9.81,0,0,0,421.85,283.68Z"/><path class="cls-6" d="M421.85,283.68a9.82,9.82,0,1,0,10.27-9.35A9.81,9.81,0,0,0,421.85,283.68Z"/><path class="cls-7" d="M404.85,267.2a3.4,3.4,0,0,0,2.39,3.39,3,3,0,0,0,.86.17,3.33,3.33,0,0,0,1.63-.35,3.4,3.4,0,0,0,1.85-2.36,4.85,4.85,0,0,0,.08-.53,3.4,3.4,0,0,0-3.24-3.56,3.25,3.25,0,0,0-.88.08A3.41,3.41,0,0,0,404.85,267.2Z"/><path class="cls-8" d="M458,222.82a17.18,17.18,0,0,1-16.36-18l.93-19.61a17.18,17.18,0,0,1,18-16.36l19.61.92a17.19,17.19,0,0,1,16.36,18l-.92,19.62a17.2,17.2,0,0,1-18,16.36Zm1.48-3.93,17,.8a14.48,14.48,0,0,0,15.14-13.78l.8-17a14.47,14.47,0,0,0-13.78-15.14l-17-.8a14.48,14.48,0,0,0-15.14,13.78l-.8,17A14.48,14.48,0,0,0,459.48,218.89Z"/><path class="cls-9" d="M459.48,218.89a14.48,14.48,0,0,1-13.78-15.14l.8-17a14.48,14.48,0,0,1,15.14-13.78l17,.8a14.47,14.47,0,0,1,13.78,15.14l-.8,17a14.48,14.48,0,0,1-15.14,13.78Zm-.72-23a10.49,10.49,0,1,0,11-10A10.49,10.49,0,0,0,458.76,195.84Z"/><path class="cls-10" d="M468.74,206.81a10.49,10.49,0,1,0-10-11A10.49,10.49,0,0,0,468.74,206.81Z"/><polygon class="cls-3" points="420.36 256.47 420.47 254.25 380.96 252.4 380.51 252.37 380.4 254.59 382.4 254.68 407.93 255.88 420.36 256.47"/><polygon class="cls-3" points="447.33 257.74 457.9 258.23 486.13 259.56 486.29 259.57 487.71 259.63 487.81 257.42 487.46 257.4 447.44 255.52 447.33 257.74"/><polygon class="cls-7" points="441.18 252.72 441.79 239.74 427.57 239.07 426.96 252.06 441.18 252.72"/><path class="cls-11" d="M0,251.07v7.71a22.67,22.67,0,0,1,0,17.13v5.66l15.2-16.44Z"/><polygon class="cls-12" points="15.2 265.13 0 281.57 0 319.19 33.96 282.49 15.2 265.13"/><polygon class="cls-3" points="33.96 282.49 35.43 283.84 39.5 279.44 0 242.9 0 251.07 15.2 265.13 33.96 282.49"/><path class="cls-6" d="M0,258.78v17.13A22.67,22.67,0,0,0,0,258.78Z"/><path class="cls-6" d="M777.11,513.4,788,525.34a21,21,0,0,0,10.57,20.59l1.47.82v-6a17.16,17.16,0,0,1-4.51-22l4.51-8V490.53l-9.08-1.74Z"/><path class="cls-18" d="M729.29,460.93l2,1.15h0l4.62,2.59h0l4.13,2.32h0l3.85,2.16h0l4,2.22h0l6.53,3.66h0l3.74,2.1h0l15.31,8.59,5.18-9.23-1.12-.63,13.21-23.55,1.12.63,5.95-10.59-7.07-4a3,3,0,0,1-.22.52,3.41,3.41,0,0,1-4.64,1.31,3.47,3.47,0,0,1-.44-.31l-2.78,1.33a22.65,22.65,0,1,1-9.52-10.33,22.39,22.39,0,0,1,8.09,7.68l2.93-1.39a3.29,3.29,0,0,1,.42-1.62,3.13,3.13,0,0,1,.32-.46L781.07,433h0l-.7-.39-12.09-6.79-1.44-.8h0l-15.5-8.7-13,23.2L727,459.65l2.29,1.28Z"/><polygon class="cls-18" points="800 457.51 800 442.97 793.8 454.02 800 457.51"/><polygon class="cls-18" points="782.98 474.33 797.8 482.65 800 478.73 800 474.65 797.23 479.59 785.89 473.23 792.85 460.81 800 464.82 800 462.09 792.27 457.76 782.98 474.33"/><polygon class="cls-18" points="793.23 484.67 780.59 477.57 760.99 512.51 774.47 518.11 777.11 513.4 790.92 488.79 793.23 484.67"/><polygon class="cls-3" points="751.34 416.28 761.88 397.49 761.88 397.49 762.13 397.04 763.98 393.73 763.99 393.73 764.96 391.99 759.73 389.05 707.38 482.37 712.61 485.31 738.32 439.48 751.34 416.28 751.34 416.28"/><path class="cls-8" d="M800,540.79v-6.35a14.46,14.46,0,0,1-.39-14.83l.39-.7v-8.17l-4.51,8A17.16,17.16,0,0,0,800,540.79Z"/><path class="cls-9" d="M800,534.44V518.91l-.39.7A14.46,14.46,0,0,0,800,534.44Z"/><polygon class="cls-3" points="797.81 442.35 791.86 452.94 793.8 454.02 800 442.97 800 438.88 798 442.45 797.81 442.35"/><polygon class="cls-3" points="778.65 476.49 773.48 485.72 773.66 485.83 766.72 498.2 766.72 498.2 763.5 503.94 763.5 503.94 759.76 510.61 759.57 510.5 758.88 511.74 760.81 512.83 760.99 512.51 780.59 477.57 778.65 476.49"/><polygon class="cls-6" points="785.89 473.23 797.23 479.59 800 474.65 800 464.82 792.85 460.81 785.89 473.23"/><polygon class="cls-6" points="791.86 452.94 790.74 452.31 777.53 475.86 778.65 476.49 780.59 477.57 793.23 484.67 799.34 488.09 800 486.91 800 478.73 797.8 482.65 782.98 474.33 792.27 457.76 800 462.09 800 457.51 793.8 454.02 791.86 452.94"/><path class="cls-21" d="M759.76,510.61l-.19-.11-35.21-19.75,4.08,2.29s-3.09-5.73-6-10.62-3.2-7.09-2.53-9.23c0,0-2,5.73-1.2,7.13s2.78,3.75,3.82,6.13a5.87,5.87,0,0,1,.67,3.67l-10.15-5.69L727,459.65h0l2.29,1.28a26.06,26.06,0,0,1-.91,3.63c-.7,2.26-2.34,5.44-1.92,7.7s.79,5.13,2.06,6.93a55.6,55.6,0,0,1,3.29,6.22c.6-.75-.07-5.47-.78-7.59a14.33,14.33,0,0,1-1.2-6.54c.19-2.86,1.5-9.2,1.5-9.2l4.62,2.59s-1.33,3.62-.93,4.47a14.42,14.42,0,0,1,1.91,7.52c-.08,4.21-1.24,8.78.07,13s.2,4.95,1.32,7.13,5.22,3.78,5.22,3.78c-.55-1.42-2.81-2.58-2.81-6.65s-2.59-8.18-2.65-13.05,2-13.88,2-13.88l3.85,2.16a27.59,27.59,0,0,1,1.27,8.29c-.24,3.55-1.67,6.73-.6,8.88s2.39,7.36,2.2,9.84c0,0,1.66-6.41,1.64-6.69s-2.61-5-2.06-7.25,1-5.5,1.21-6.53a41.36,41.36,0,0,0,.31-4.32l6.53,3.66c1.19.68.68,3.79,1.23,6.23a32.51,32.51,0,0,0,2,5.48,20,20,0,0,0,.11-4.88,14.53,14.53,0,0,1,.38-4.73l15.31,8.59.19.11-6.94,12.37a5.58,5.58,0,0,1-1.79-4c-.11-2.69-.2-6.38-.12-8.08s-3.82-5.24-3.82-5.24c1.48,1.41,2.57,3.77,2.19,9.74a102.73,102.73,0,0,0,.32,13.34Zm-7.08-28.82c-.12,2.48-.34,7.15.17,8.77.7,2.24,2.22,5.2,1.93,7.3s2.1,6,2.58,7.26,2.86,4.67,2.52,5.29l2.21-3.93s-4.38-6.67-4.64-9.07a12.63,12.63,0,0,0-2.07-6,32,32,0,0,1-2.7-9.6,14,14,0,0,1,.17-1.57c.21-.94.15,0,.15,0h0c0,.1-.2.21-.23.35A4.12,4.12,0,0,0,752.68,481.79Z"/><path class="cls-22" d="M752.62,480.57a4.33,4.33,0,0,0,0,1.22c0-.93.08-1.55.09-1.57S752.65,480.43,752.62,480.57Z"/><path class="cls-22" d="M753,480.21h0Z"/><path class="cls-22" d="M752.85,490.56c.69,2.24,2.22,5.2,1.93,7.3s2.1,6,2.58,7.26,2.86,4.67,2.51,5.29l2.21-3.93s-4.39-6.67-4.65-9.07a12.76,12.76,0,0,0-2.08-6,31.73,31.73,0,0,1-2.74-9.6C752.49,484.27,752.34,488.94,752.85,490.56Z"/><path class="cls-22" d="M729.29,460.93h0a26.06,26.06,0,0,1-.91,3.63c-.7,2.26-2.34,5.44-1.92,7.7s.79,5.13,2.06,6.93a55.6,55.6,0,0,1,3.29,6.22c.6-.75-.07-5.47-.78-7.59a14.33,14.33,0,0,1-1.2-6.54c.19-2.86,1.5-9.2,1.5-9.2h0Z"/><path class="cls-22" d="M743.93,469.15h0a27.59,27.59,0,0,1,1.27,8.29c-.24,3.55-1.67,6.73-.6,8.88s2.39,7.36,2.2,9.84c0,0,1.66-6.41,1.64-6.69s-2.61-5-2.06-7.25,1-5.5,1.21-6.53a41.36,41.36,0,0,0,.31-4.32h0Z"/><path class="cls-22" d="M764.93,494.18c-.11-2.69-.2-6.38-.12-8.08s-3.82-5.24-3.82-5.24c1.48,1.41,2.57,3.77,2.19,9.74a102.73,102.73,0,0,0,.32,13.34h0l3.22-5.74h0A5.58,5.58,0,0,1,764.93,494.18Z"/><path class="cls-22" d="M754.42,475h0c1.19.68.68,3.79,1.23,6.23a32.51,32.51,0,0,0,2,5.48,20,20,0,0,0,.11-4.88,14.53,14.53,0,0,1,.38-4.73h0Z"/><path class="cls-22" d="M736,464.67h0s-1.33,3.62-.93,4.47a14.42,14.42,0,0,1,1.91,7.52c-.08,4.21-1.24,8.78.07,13s.2,4.95,1.32,7.13,5.22,3.78,5.22,3.78c-.55-1.42-2.81-2.58-2.81-6.65s-2.59-8.18-2.65-13.05,2-13.88,2-13.88h0Z"/><path class="cls-22" d="M728.44,493s-3.09-5.73-6-10.62-3.2-7.09-2.53-9.23c0,0-2,5.73-1.2,7.13s2.78,3.75,3.82,6.13a5.87,5.87,0,0,1,.67,3.67h0l1.11.63Z"/><path class="cls-21" d="M764,393.73l36,20.2h0l-4.7-2.64s2.24,3.75,4.7,7.7v19.88l-2,3.57-.19-.1-7.07-4a3.39,3.39,0,0,0-1-3.7,2.51,2.51,0,0,0,0-1.38,13.78,13.78,0,0,1-2.16-7.07c-.08-3.92.88-8.13-.57-12.11s-.38-4.62-1.57-6.7-5.25-3.71-5.25-3.71c.6,1.33,2.85,2.51,3,6.29s2.85,7.72,3.11,12.27-1.33,12.33-1.42,12.8l0,0L781.07,433a25.76,25.76,0,0,1-1.56-7.78c.09-3.29,1.37-6.2.24-8.24s-2.62-6.95-2.53-9.25c0,0-1.37,5.9-1.34,6.17s2.74,4.79,2.29,6.83-.74,5.08-.93,6a35.43,35.43,0,0,0-.14,4l3.27,1.84-12.09-6.79,2.3,1.29c-1.2-.67-.82-3.55-1.45-5.85a31.57,31.57,0,0,0-2.18-5.17,18,18,0,0,0,.08,4.54,12.37,12.37,0,0,1-.19,4.39l-15.5-8.7h0l10.53-18.79s4.56,6.38,4.9,8.63A12.35,12.35,0,0,0,769,411.8a30.92,30.92,0,0,1,3,9c0,.87,0,1.44-.05,1.46-.17.87,0,0,0,0h0a2.22,2.22,0,0,1,.1-.32,3.6,3.6,0,0,0,0-1.14c0-2.3,0-6.64-.57-8.17-.77-2.12-2.38-4.93-2.17-6.87s-2.29-5.69-2.8-6.86-3-4.47-2.67-5L762.13,397l1.85-3.31Zm-.06,27.66c-1.5-1.37-2.66-3.6-2.52-9.16a90.25,90.25,0,0,0-.83-12.43L757.65,405a5.61,5.61,0,0,1,1.91,3.81c.22,2.51.44,6,.43,7.53S763.93,421.39,763.93,421.39Zm28.37-3.12c-.56.68.28,5.1,1.06,7.1a13.48,13.48,0,0,1,1.42,6.15c-.08,2.65-1.11,8.51-1.11,8.51l2,1.14a21.76,21.76,0,0,1,.75-3.34c.6-2.08,2.08-5,1.58-7.1s-1-4.81-2.28-6.53A57.22,57.22,0,0,1,792.3,418.27Z"/><path class="cls-22" d="M761.88,397.49h0s4.55,6.38,4.9,8.63A12.32,12.32,0,0,0,769,411.8a30.36,30.36,0,0,1,3.05,9c0-2.3,0-6.64-.57-8.17-.77-2.12-2.38-4.93-2.17-6.87s-2.29-5.69-2.8-6.86-3-4.47-2.67-5L762.13,397Z"/><path class="cls-22" d="M772.13,422a3.82,3.82,0,0,0,0-1.14c0,.87,0,1.44,0,1.46S772.11,422.11,772.13,422Z"/><path class="cls-22" d="M772,422.31h0Z"/><path class="cls-22" d="M793.36,425.37a13.48,13.48,0,0,1,1.42,6.15c-.08,2.65-1.11,8.51-1.11,8.51l2,1.14a21.76,21.76,0,0,1,.75-3.34c.6-2.08,2.08-5,1.58-7.1s-1-4.81-2.28-6.53a57.22,57.22,0,0,1-3.46-5.93C791.74,419,792.58,423.37,793.36,425.37Z"/><path class="cls-22" d="M781.07,433a25.76,25.76,0,0,1-1.56-7.78c.09-3.29,1.37-6.2.24-8.24s-2.62-6.95-2.53-9.25c0,0-1.37,5.9-1.34,6.17s2.74,4.79,2.29,6.83-.74,5.08-.93,6a35.43,35.43,0,0,0-.14,4l3.27,1.84.7.39Z"/><path class="cls-22" d="M761.41,412.23a90.25,90.25,0,0,0-.83-12.43L757.65,405a5.61,5.61,0,0,1,1.91,3.81c.22,2.51.44,6,.43,7.53s3.94,5,3.94,5C762.43,420,761.27,417.79,761.41,412.23Z"/><path class="cls-22" d="M768.28,425.78l2.3,1.29c-1.2-.67-.82-3.55-1.45-5.85a31.57,31.57,0,0,0-2.18-5.17,18,18,0,0,0,.08,4.54,12.37,12.37,0,0,1-.19,4.39h0Z"/><path class="cls-22" d="M789.21,434.27a3.54,3.54,0,0,1,.58.41,2.51,2.51,0,0,0,0-1.38,13.78,13.78,0,0,1-2.16-7.07c-.08-3.92.88-8.13-.57-12.11s-.38-4.62-1.57-6.7-5.25-3.71-5.25-3.71c.6,1.33,2.85,2.51,3,6.29s2.85,7.72,3.11,12.27-1.33,12.33-1.42,12.8A3.4,3.4,0,0,1,789.21,434.27Z"/><path class="cls-22" d="M800,419v-5.06l-4.7-2.64S797.54,415.05,800,419Z"/><path class="cls-6" d="M785.44,439.9l-2.78,1.33a22.65,22.65,0,1,1-9.52-10.33,22.39,22.39,0,0,1,8.09,7.68l2.93-1.39A3.36,3.36,0,0,0,785.44,439.9Zm-15.9-2.58a15.29,15.29,0,1,0,5.85,20.81A15.29,15.29,0,0,0,769.54,437.32Z"/><path class="cls-7" d="M775.39,458.13a15.29,15.29,0,1,1-5.85-20.81A15.29,15.29,0,0,1,775.39,458.13Zm-8.52-16.05a9.83,9.83,0,1,0,3.76,13.38A9.82,9.82,0,0,0,766.87,442.08Z"/><path class="cls-6" d="M766.87,442.08a9.83,9.83,0,1,0,3.76,13.38A9.82,9.82,0,0,0,766.87,442.08Z"/><path class="cls-7" d="M784.16,437.19a3.36,3.36,0,0,0,1.28,2.71,3.47,3.47,0,0,0,.44.31,3.41,3.41,0,0,0,4.64-1.31,3,3,0,0,0,.22-.52,3.39,3.39,0,0,0-1-3.7,3.54,3.54,0,0,0-.58-.41,3.4,3.4,0,0,0-4.28.8l0,0a3.13,3.13,0,0,0-.32.46A3.29,3.29,0,0,0,784.16,437.19Z"/><polygon class="cls-3" points="770.38 320.29 765.91 316.28 763.89 318.47 780.77 334.09 786.88 327.48 774.4 315.94 770.38 320.29"/><path class="cls-11" d="M786.32,288.8,787,292a3.39,3.39,0,0,1,1.48.79,3,3,0,0,1,.55.68l11-11.87v-5.66a22.5,22.5,0,0,1-13.68,12.89Z"/><path class="cls-11" d="M742.29,270.27l7.77,7.19.87-.94,19.82,18.33-.87.94,9.14,8.46,5.54-6a3.67,3.67,0,0,1-.72-.49,3.41,3.41,0,0,1-.18-4.82,3.34,3.34,0,0,1,.4-.35l-.65-3A22.65,22.65,0,1,1,800,258.78v-7.71l-21.53-19.91Z"/><polygon class="cls-11" points="757.74 211.97 757.62 211.86 721.43 250.97 721.55 251.09 757.74 211.97"/><path class="cls-12" d="M788.66,297.57a3.4,3.4,0,0,1-4.1.68l-5.54,6,18.76,17.35,2.22-2.41V281.57l-11,11.87A3.4,3.4,0,0,1,788.66,297.57Z"/><polygon class="cls-12" points="742.29 270.27 778.48 231.16 757.74 211.97 721.55 251.09 742.29 270.27"/><polygon class="cls-3" points="756.88 211.18 757.62 211.86 757.74 211.97 778.48 231.16 800 251.07 800 242.9 760.96 206.78 756.88 211.18"/><path class="cls-6" d="M794.43,250.72a22.37,22.37,0,0,1,5.57,8.06v17.13a22.5,22.5,0,0,1-13.68,12.89L787,292a3.38,3.38,0,0,0-2.93.62l-.65-3a22.64,22.64,0,1,1,11-38.83Zm-5,5.41a15.28,15.28,0,1,0,.84,21.59A15.28,15.28,0,0,0,789.43,256.13Z"/><path class="cls-7" d="M789.43,256.13a15.28,15.28,0,1,1-21.59.84A15.27,15.27,0,0,1,789.43,256.13Zm-3.71,4a9.82,9.82,0,1,0,.55,13.88A9.81,9.81,0,0,0,785.72,260.14Z"/><path class="cls-6" d="M771.84,260.68a9.83,9.83,0,1,0,13.88-.54A9.83,9.83,0,0,0,771.84,260.68Z"/><path class="cls-7" d="M788.66,297.57a3.4,3.4,0,0,0,.36-4.13,3,3,0,0,0-.55-.68,3.43,3.43,0,0,0-4.41-.17,3.34,3.34,0,0,0-.4.35,3.41,3.41,0,0,0,.18,4.82,3.67,3.67,0,0,0,.72.49A3.4,3.4,0,0,0,788.66,297.57Z"/><path class="cls-8" d="M719.42,297.3a17.18,17.18,0,0,1,1,24.28L707,336a17.18,17.18,0,0,1-24.28.94l-14.41-13.33a17.18,17.18,0,0,1-1-24.28l13.34-14.42A17.17,17.17,0,0,1,705,284Zm-3.67,2.06-12.51-11.58a14.49,14.49,0,0,0-20.46.8l-11.57,12.51a14.48,14.48,0,0,0,.79,20.46l12.52,11.58a14.47,14.47,0,0,0,20.45-.8l11.58-12.51A14.48,14.48,0,0,0,715.75,299.36Z"/><path class="cls-9" d="M715.75,299.36a14.48,14.48,0,0,1,.8,20.46L705,332.33a14.47,14.47,0,0,1-20.45.8L672,321.55a14.48,14.48,0,0,1-.79-20.46l11.57-12.51a14.49,14.49,0,0,1,20.46-.8Zm-14.86,3.28a10.49,10.49,0,1,0,.58,14.82A10.48,10.48,0,0,0,700.89,302.64Z"/><path class="cls-10" d="M686.07,303.22a10.49,10.49,0,1,0,14.82-.58A10.49,10.49,0,0,0,686.07,303.22Z"/><polygon class="cls-3" points="769.88 295.79 768.38 297.42 797.41 324.28 797.74 324.59 799.25 322.96 797.77 321.6 779.02 304.25 769.88 295.79"/><polygon class="cls-3" points="750.06 277.46 742.29 270.27 721.55 251.09 721.43 250.97 720.39 250.01 718.88 251.64 719.15 251.88 748.55 279.09 750.06 277.46"/><polygon class="cls-7" points="753.16 304.47 761.99 294.92 751.54 285.25 742.71 294.8 753.16 304.47"/><path class="cls-6" d="M768.38,297.42l29,26.86-7.53,6-3-2.78L774.4,315.94l-4,4.35-4.47-4-8.18-7.36-4,4.28L734,294.87l4.75-5.14-3.47-3.2-6.64,14.69a21,21,0,0,1-3.72,22.85l-15,16.24a21,21,0,0,1-29.59,1.15l-16.24-15a20.93,20.93,0,0,1-1.15-29.59l15-16.24a20.93,20.93,0,0,1,22.48-5.48l14.14-7.77-4-3.67,8.59-11.81,29.4,27.21,1.51-1.63.87-.94,19.82,18.33-.87.94Zm-49-.12L705,284a17.17,17.17,0,0,0-24.27.94l-13.34,14.42a17.18,17.18,0,0,0,1,24.28l14.41,13.33A17.18,17.18,0,0,0,707,336l13.34-14.42A17.18,17.18,0,0,0,719.42,297.3Zm32.12-12.05-8.83,9.55,10.45,9.67,8.83-9.55Z"/><path class="cls-6" d="M575.67,376.62a20.94,20.94,0,0,1-4.15,7.22l-14.6,16.61a20.8,20.8,0,0,1-6.63,5l14.87,6.28,18.64-21.2Z"/><polygon class="cls-3" points="532.29 447.74 536.19 443.17 533.95 441.2 518.76 458.48 525.52 464.42 536.74 451.65 532.29 447.74"/><path class="cls-13" d="M640.25,432.36,621.6,453.58,583.3,419.9l-33,37.58,4.41,3.88a3.38,3.38,0,0,1,5.29-1,4.38,4.38,0,0,1,.36.39l3-.72a22,22,0,1,1,.82,2.89l-3.15.75a3.47,3.47,0,0,1-.74,1.5,3.56,3.56,0,0,1-.67.56l28.95,25.46,51.8-58.91-38.29-33.68-.11.13Z"/><path class="cls-14" d="M559.61,465.69a3.39,3.39,0,0,1-4.93-4.33l-4.41-3.88-16.88,19.19,38.3,33.67,16.87-19.19Z"/><polygon class="cls-14" points="640.25 432.36 601.96 398.69 583.3 419.9 621.6 453.58 640.25 432.36"/><path class="cls-15" d="M557.15,416.33l12.77,11.22-12.55,14.27L544.6,430.6Zm6.49,12-6.5-5.71-6.26,7.12,6.5,5.71Z"/><polygon class="cls-15" points="573.9 425.73 600.46 395.53 587.36 386.51 583.8 390.56 565.16 411.76 562.04 415.31 573.9 425.73"/><polygon class="cls-15" points="556.08 446.01 543.33 434.81 536.19 443.17 532.29 447.74 536.74 451.65 525.52 464.42 522.82 467.48 529.83 475.86 556.08 446.01"/><polygon class="cls-3" points="641.02 431.49 640.36 432.24 588.56 491.15 571.69 510.34 570.37 511.84 574.88 515.8 645.53 435.45 641.02 431.49"/><path class="cls-6" d="M560.33,460.71l3-.72a22,22,0,1,1,.82,2.89l-3.15.75A3.38,3.38,0,0,0,560.33,460.71Zm15,5.84A15.28,15.28,0,1,0,574,445,15.27,15.27,0,0,0,575.35,466.55Z"/><path class="cls-7" d="M574,445a15.28,15.28,0,1,1,1.39,21.57A15.29,15.29,0,0,1,574,445Zm5,17.47a9.82,9.82,0,1,0-.89-13.87A9.82,9.82,0,0,0,579,462.45Z"/><path class="cls-6" d="M579,462.45a9.82,9.82,0,1,0-.89-13.87A9.82,9.82,0,0,0,579,462.45Z"/><path class="cls-7" d="M561,463.63a3.38,3.38,0,0,0-.69-2.92,4.38,4.38,0,0,0-.36-.39,3.4,3.4,0,1,0-.36,5.37,3.56,3.56,0,0,0,.67-.56A3.47,3.47,0,0,0,561,463.63Z"/><path class="cls-15" d="M550.29,405.48a20.93,20.93,0,0,1-22.92-3.13l-16.62-14.61a21,21,0,0,1-1.9-29.55l14.61-16.61a20.93,20.93,0,0,1,29.55-1.9l16.62,14.6a20.94,20.94,0,0,1,1.89,29.56l-14.6,16.61A20.8,20.8,0,0,1,550.29,405.48Zm3.69-9.27,13-14.74a17.18,17.18,0,0,0-1.56-24.25l-14.75-13a17.17,17.17,0,0,0-24.24,1.56l-13,14.75A17.18,17.18,0,0,0,515,384.81l14.75,13A17.16,17.16,0,0,0,554,396.21Z"/><path class="cls-8" d="M529.74,397.77l-14.75-13a17.18,17.18,0,0,1-1.56-24.25l13-14.75a17.17,17.17,0,0,1,24.24-1.56l14.75,13A17.18,17.18,0,0,1,567,381.47l-13,14.74A17.16,17.16,0,0,1,529.74,397.77Zm22.09-5.17,11.26-12.8a14.48,14.48,0,0,0-1.31-20.43L549,348.11a14.48,14.48,0,0,0-20.43,1.31l-11.25,12.81a14.48,14.48,0,0,0,1.31,20.43l12.8,11.25A14.48,14.48,0,0,0,551.83,392.6Z"/><path class="cls-9" d="M563.09,379.8l-11.26,12.8a14.48,14.48,0,0,1-20.43,1.31l-12.8-11.25a14.48,14.48,0,0,1-1.31-20.43l11.25-12.81A14.48,14.48,0,0,1,549,348.11l12.81,11.26A14.48,14.48,0,0,1,563.09,379.8ZM547.23,363a10.49,10.49,0,1,0,.95,14.8A10.49,10.49,0,0,0,547.23,363Z"/><path class="cls-10" d="M547.23,363a10.49,10.49,0,1,0,.95,14.8A10.49,10.49,0,0,0,547.23,363Z"/><polygon class="cls-3" points="583.3 419.9 601.96 398.69 602.07 398.56 603 397.5 600.59 395.38 600.46 395.53 573.9 425.73 575.56 427.19 557.73 447.47 556.08 446.01 529.83 475.86 529.66 476.06 532.07 478.17 533.39 476.67 550.27 457.48 583.3 419.9"/><polygon class="cls-6" points="550.88 429.78 557.38 435.49 563.64 428.37 557.14 422.66 550.88 429.78"/><path class="cls-6" d="M543.33,434.81,539,431l17.83-20.28L562,415.3l11.86,10.43,1.66,1.46-17.83,20.28L556.08,446Zm26.59-7.26-12.77-11.22L544.6,430.6l12.77,11.22Z"/><path class="cls-16" d="M610.67,161.05,593.42,174.9a20.88,20.88,0,0,1-7.39,3.82l13.56,8.74,22-17.67L616,154.66A20.76,20.76,0,0,1,610.67,161.05Z"/><polygon class="cls-3" points="561.01 217.23 565.63 213.41 563.76 211.08 545.83 225.47 551.46 232.49 564.72 221.85 561.01 217.23"/><path class="cls-17" d="M609,269.7l-24.13-30.07a3.39,3.39,0,0,1-4.11-5.12l-5.11-6.37-19.93,16L589,285.69l8.46-6.78Z"/><polygon class="cls-17" points="647.97 238.39 668.55 221.87 670 220.71 636.66 179.15 614.62 196.83 647.97 238.39"/><path class="cls-18" d="M586.73,215.73l-10.64-13.26,14.82-11.89,10.64,13.26Zm-7.32-12.92,7.36,9.16,11.1-8.91-7.35-9.16Z"/><polygon class="cls-18" points="574.12 206.4 565.63 213.41 561.01 217.23 564.72 221.85 551.46 232.49 548.27 235.05 553.08 243.38 583.92 218.62 574.12 206.4"/><polygon class="cls-18" points="595.9 190.41 604.98 201.72 636.23 176.65 625.81 166.42 621.6 169.79 599.59 187.46 595.9 190.41"/><path class="cls-6" d="M586.57,237.84l3.23-.2a21.36,21.36,0,0,1-.31-3l-3.1.19A3.39,3.39,0,0,1,586.57,237.84Z"/><path class="cls-7" d="M589.8,237.64a21.36,21.36,0,0,1-.31-3,22.05,22.05,0,1,1,.31,3Zm10.37,5.54a15.28,15.28,0,1,0,2.36-21.48A15.29,15.29,0,0,0,600.17,243.18Z"/><path class="cls-19" d="M602.53,221.7a15.28,15.28,0,1,1-2.36,21.48A15.27,15.27,0,0,1,602.53,221.7Zm1.9,18.07A9.82,9.82,0,1,0,605.94,226,9.82,9.82,0,0,0,604.43,239.77Z"/><path class="cls-7" d="M604.43,239.77A9.82,9.82,0,1,0,605.94,226,9.82,9.82,0,0,0,604.43,239.77Z"/><path class="cls-7" d="M580.79,238.66a3.43,3.43,0,0,0,4.78.52,3.27,3.27,0,0,0,1-1.34,3.39,3.39,0,0,0-.18-3,3.46,3.46,0,0,0-.29-.45,3.41,3.41,0,0,0-4.79-.53,3.62,3.62,0,0,0-.6.64A3.41,3.41,0,0,0,580.79,238.66Z"/><path class="cls-18" d="M550.14,154.42A20.94,20.94,0,0,1,553.37,125l17.25-13.84a20.93,20.93,0,0,1,29.43,3.22l13.85,17.26a20.92,20.92,0,0,1-3.23,29.43L593.42,174.9A20.92,20.92,0,0,1,564,171.67Zm4.68-2.16,12.29,15.31a17.18,17.18,0,0,0,24.15,2.65l15.32-12.29a17.18,17.18,0,0,0,2.64-24.15l-12.29-15.32a17.18,17.18,0,0,0-24.15-2.65l-15.32,12.3A17.18,17.18,0,0,0,554.82,152.26Z"/><path class="cls-8" d="M554.82,152.26a17.18,17.18,0,0,1,2.64-24.15l15.32-12.3a17.18,17.18,0,0,1,24.15,2.65l12.29,15.32a17.18,17.18,0,0,1-2.64,24.15l-15.32,12.29a17.18,17.18,0,0,1-24.15-2.65Zm3.93-1.5,10.67,13.3a14.47,14.47,0,0,0,20.35,2.23l13.29-10.67a14.47,14.47,0,0,0,2.23-20.35L594.62,122a14.48,14.48,0,0,0-20.35-2.23L561,130.41A14.47,14.47,0,0,0,558.75,150.76Z"/><path class="cls-9" d="M558.75,150.76A14.47,14.47,0,0,1,561,130.41l13.29-10.67A14.48,14.48,0,0,1,594.62,122l10.67,13.3a14.47,14.47,0,0,1-2.23,20.35l-13.29,10.67a14.47,14.47,0,0,1-20.35-2.23ZM574,149.49a10.49,10.49,0,1,0,1.62-14.74A10.49,10.49,0,0,0,574,149.49Z"/><path class="cls-10" d="M588.71,151.11A10.49,10.49,0,1,0,574,149.49,10.48,10.48,0,0,0,588.71,151.11Z"/><path class="cls-3" d="M605,201.72l31.25-25.07.28-.22,1.38,1.72-1.1.89,33.34,41.56.78-.62,3.76,4.67-83.45,67-3.76-4.68,1.56-1.25,8.46-6.78L609,269.7l-24.13-30.07a3.39,3.39,0,0,0,.75-.45,3.27,3.27,0,0,0,1-1.34l3.23-.2a23,23,0,1,0-.31-3l-3.1.19a3.46,3.46,0,0,0-.29-.45,3.41,3.41,0,0,0-4.79-.53,3.62,3.62,0,0,0-.6.64l-5.11-6.37-19.93,16-1.56,1.26-1.39-1.73.36-.28,30.84-24.76,2.19,2.73,21.06-16.9Zm31.68-22.57-22,17.68L648,238.39l20.58-16.52,1.45-1.16Z"/><polygon class="cls-19" points="597.87 203.06 590.52 193.9 579.41 202.81 586.77 211.97 597.87 203.06"/><path class="cls-16" d="M583.92,218.62l-9.8-12.22-3.65-4.55,21-16.89,4.39,5.45L605,201.72l2.19,2.73-21.06,16.9Zm-7.83-16.15,10.64,13.26,14.82-11.89-10.64-13.26Z"/><polygon class="cls-3" points="447.98 9.76 464.9 8.11 464.33 2.21 470.29 1.55 470.14 0 455.38 0 447.11 0.81 447.98 9.76"/><path class="cls-17" d="M472,34a3.39,3.39,0,0,1-.64-6.53l-.79-8.13-25.43,2.48,5.17,53,25.43-2.47Z"/><polygon class="cls-17" points="525.53 67.51 538.46 66.25 553.65 64.77 548.48 11.74 520.36 14.48 525.53 67.51"/><polygon class="cls-20" points="505.58 13.19 504.3 0 501.91 0 502.93 10.53 488.76 11.91 487.62 0.21 489.82 0 485.21 0 486.68 15.03 505.58 13.19"/><polygon class="cls-20" points="549.49 9.41 547.43 0 508.32 0 509.62 13.3 549.49 9.41"/><polygon class="cls-20" points="481.22 0.32 470.29 1.55 464.33 2.21 464.9 8.11 447.98 9.76 443.92 10.16 443.38 19.76 482.74 15.92 481.22 0.32"/><path class="cls-6" d="M474.44,33.45l2.81,1.6a22.33,22.33,0,0,1,1.36-2.67l-2.68-1.53A3.4,3.4,0,0,1,474.44,33.45Z"/><path class="cls-7" d="M477.25,35.05a22.33,22.33,0,0,1,1.36-2.67,22.31,22.31,0,1,1-1.36,2.67Zm5.65,10.32a15.28,15.28,0,1,0,13.73-16.69A15.29,15.29,0,0,0,482.9,45.37Z"/><path class="cls-19" d="M496.63,28.68A15.28,15.28,0,1,1,482.9,45.37,15.27,15.27,0,0,1,496.63,28.68Zm-8.3,16.16a9.83,9.83,0,1,0,8.83-10.73A9.83,9.83,0,0,0,488.33,44.84Z"/><path class="cls-7" d="M488.33,44.84a9.83,9.83,0,1,0,8.83-10.73A9.83,9.83,0,0,0,488.33,44.84Z"/><path class="cls-7" d="M469.15,31A3.39,3.39,0,0,0,472,34a3.14,3.14,0,0,0,.87,0,3.29,3.29,0,0,0,1.57-.58,3.4,3.4,0,0,0,1.49-2.6,3.25,3.25,0,0,0,0-.54,3.41,3.41,0,0,0-6.78.66Z"/><path class="cls-3" d="M509.62,13.3l39.87-3.89.35,0,.22,2.2-1.41.14,5.17,53,1-.09.58,6L448.9,81l-.58-6,2-.2,25.43-2.47L472,34a3.14,3.14,0,0,0,.87,0,3.29,3.29,0,0,0,1.57-.58l2.81,1.6a22.84,22.84,0,1,0,1.36-2.67l-2.68-1.53a3.25,3.25,0,0,0,0-.54,3.36,3.36,0,0,0-4.57-2.85l-.79-8.13-25.43,2.48-2,.2-.21-2.21.45,0,39.36-3.84.34,3.48L510,16.78Zm38.86-1.56-28.12,2.74,5.17,53,12.93-1.26,15.19-1.48Z"/><polygon class="cls-19" points="488.76 11.91 502.93 10.53 501.91 0 489.82 0 487.62 0.21 488.76 11.91"/><polygon class="cls-5" points="482.74 15.92 483.08 19.4 509.95 16.78 509.62 13.3 508.32 0 504.3 0 505.58 13.19 486.68 15.03 485.21 0 481.19 0 481.22 0.32 482.74 15.92"/><polygon class="cls-3" points="310 563.98 310.45 569.96 313.43 569.78 312.04 546.82 303.05 547.37 304.08 564.34 310 563.98"/><polygon class="cls-11" points="244.23 650.96 244.24 651.13 297.42 647.89 297.41 647.73 244.23 650.96"/><path class="cls-11" d="M242.52,622.76l53.18-3.23L295.06,609l-1.28.08-1.64-26.95,1.28-.08-.75-12.42-8.16.5a3.35,3.35,0,0,1-3,4.46,4.87,4.87,0,0,1-.54,0l-1.62,2.62a22.63,22.63,0,1,1-2.63-1.45l1.7-2.76a3.4,3.4,0,0,1-.52-1.58,3.65,3.65,0,0,1,.07-.88l-38.48,2.34-1.55-25.5,2.95,48.53,2.26,37.25Z"/><path class="cls-12" d="M278,570.48a3.39,3.39,0,0,1,6.55-.39l8.16-.5-1.55-25.5-53.19,3.23,1.55,25.5Z"/><polygon class="cls-12" points="243.14 633.11 244.23 650.96 297.41 647.73 295.7 619.53 242.52 622.76 243.14 633.11"/><polygon class="cls-3" points="243.14 633.11 240.88 595.85 237.81 545.32 231.82 545.68 238.31 652.49 244.3 652.12 244.24 651.13 244.23 650.96 243.14 633.11"/><path class="cls-6" d="M281,574.53l-1.62,2.62a22.63,22.63,0,1,1-2.63-1.45l1.7-2.76A3.42,3.42,0,0,0,281,574.53ZM266.2,581a15.28,15.28,0,1,0,16.18,14.32A15.28,15.28,0,0,0,266.2,581Z"/><path class="cls-7" d="M282.38,595.29A15.28,15.28,0,1,1,266.2,581,15.28,15.28,0,0,1,282.38,595.29Zm-15.85-8.88a9.83,9.83,0,1,0,10.4,9.21A9.83,9.83,0,0,0,266.53,586.41Z"/><path class="cls-6" d="M266.53,586.41a9.83,9.83,0,1,0,10.4,9.21A9.83,9.83,0,0,0,266.53,586.41Z"/><path class="cls-7" d="M281.08,567.75a3.4,3.4,0,0,0-3.12,2.73,3.65,3.65,0,0,0-.07.88,3.44,3.44,0,0,0,3.07,3.17,4.87,4.87,0,0,0,.54,0,3.41,3.41,0,0,0-.42-6.8Z"/><path class="cls-6" d="M391.07,633.08a20.94,20.94,0,0,1-19.63,22.17l-22.08,1.34a20.94,20.94,0,0,1-20-11.59l-15.59-4.16.33,5.38-14.37,2.6-2.43-40-2.21.13-1.28.08-1.64-26.95,1.28-.08,2.21-.13-2.4-39.48,9.58.89.24,4.08,1,17L310,564l.45,6,.83,11,5.81-.35,1.64,26.95-7,.42.29,4.71,15-6a21,21,0,0,1,18.48-13.93l22.08-1.34A20.94,20.94,0,0,1,389.73,611Zm-91.69-30.77,13-.79-.87-14.21-13,.79ZM386,632.14l-1.2-19.6a17.16,17.16,0,0,0-18.19-16.1L347,597.63a17.18,17.18,0,0,0-16.11,18.19l1.2,19.6a17.18,17.18,0,0,0,18.19,16.11l19.6-1.19A17.19,17.19,0,0,0,386,632.14Z"/><path class="cls-8" d="M386,632.14a17.19,17.19,0,0,1-16.11,18.2l-19.6,1.19a17.18,17.18,0,0,1-18.19-16.11l-1.2-19.6A17.18,17.18,0,0,1,347,597.63l19.6-1.19a17.16,17.16,0,0,1,18.19,16.1Zm-4.07-1-1-17a14.47,14.47,0,0,0-15.33-13.57l-17,1A14.48,14.48,0,0,0,335,616.87l1,17a14.49,14.49,0,0,0,15.33,13.58l17-1A14.49,14.49,0,0,0,381.94,631.09Z"/><path class="cls-9" d="M381.94,631.09a14.49,14.49,0,0,1-13.58,15.33l-17,1A14.49,14.49,0,0,1,336,633.88l-1-17a14.48,14.48,0,0,1,13.57-15.33l17-1a14.47,14.47,0,0,1,15.33,13.57Zm-13-7.59a10.48,10.48,0,1,0-9.83,11.11A10.48,10.48,0,0,0,368.92,623.5Z"/><path class="cls-10" d="M357.82,613.67a10.49,10.49,0,1,0,11.1,9.83A10.49,10.49,0,0,0,357.82,613.67Z"/><polygon class="cls-3" points="293.42 582.01 295.63 581.88 293.23 542.4 293.21 541.95 290.99 542.08 291.12 544.09 292.67 569.59 293.42 582.01"/><polygon class="cls-3" points="295.06 608.97 295.7 619.53 297.41 647.73 297.42 647.89 297.51 649.31 299.72 649.18 299.7 648.82 297.27 608.83 295.06 608.97"/><polygon class="cls-7" points="311.49 587.31 298.52 588.1 299.38 602.31 312.36 601.52 311.49 587.31"/><polygon class="cls-3" points="459.58 631.79 464.62 628.54 463.04 626 443.54 638.2 448.31 645.83 462.72 636.82 459.58 631.79"/><polygon class="cls-4" points="567.42 648 566.49 648.58 567.56 647.91 539.3 602.73 539.16 602.82 567.42 648"/><path class="cls-4" d="M506.24,623.42l.68,1.08L484,638.82l-.68-1.08-10.55,6.6,4.33,6.92a3.32,3.32,0,0,1,.67-.56,3.4,3.4,0,0,1,4.69,1.08,3.54,3.54,0,0,1,.23.48l3.09.17a22.58,22.58,0,1,1,0,3l-3.24-.18a3.15,3.15,0,0,1-1.94,1.57l20.44,32.69,37.12-23.22,5.3-3.31L515.21,617.8Z"/><path class="cls-5" d="M501.05,689.51l-20.44-32.69a3.38,3.38,0,0,1-3.48-5.56l-4.33-6.92-21.67,13.55,28.26,45.17,16.68-10.43,5-3.12Z"/><polygon class="cls-5" points="539.16 602.82 515.21 617.8 543.47 662.98 566.49 648.58 567.42 648 539.16 602.82"/><polygon class="cls-3" points="567.56 647.91 566.49 648.58 543.47 662.98 538.17 666.29 501.05 689.51 496.07 692.63 477.69 704.12 480.88 709.21 571.59 652.46 568.41 647.38 567.56 647.91"/><path class="cls-6" d="M482.72,652.26l3.09.17a22.58,22.58,0,1,1,0,3l-3.24-.18A3.35,3.35,0,0,0,482.72,652.26Zm12.72,9.89a15.28,15.28,0,1,0,4.85-21.06A15.28,15.28,0,0,0,495.44,662.15Z"/><path class="cls-7" d="M500.29,641.09a15.28,15.28,0,1,1-4.85,21.06A15.29,15.29,0,0,1,500.29,641.09Zm-.22,18.17a9.83,9.83,0,1,0,3.12-13.54A9.82,9.82,0,0,0,500.07,659.26Z"/><path class="cls-6" d="M500.07,659.26a9.83,9.83,0,1,0,3.12-13.54A9.82,9.82,0,0,0,500.07,659.26Z"/><path class="cls-7" d="M482.55,655.25a3.35,3.35,0,0,0,.17-3,3.54,3.54,0,0,0-.23-.48,3.4,3.4,0,0,0-4.69-1.08,3.32,3.32,0,0,0-.67.56,3.38,3.38,0,0,0,3.48,5.56,3.15,3.15,0,0,0,1.94-1.57Z"/><path class="cls-8" d="M495.12,588.64a17.16,17.16,0,0,1-23.67-5.45L461,566.54a17.19,17.19,0,0,1,5.46-23.68l16.64-10.41a17.19,17.19,0,0,1,23.68,5.45l10.42,16.65a17.18,17.18,0,0,1-5.46,23.68Zm-1-4.07,14.45-9a14.48,14.48,0,0,0,4.6-19.95l-9-14.46a14.47,14.47,0,0,0-19.95-4.59l-14.46,9a14.48,14.48,0,0,0-4.59,19.95l9,14.45A14.48,14.48,0,0,0,494.1,584.57Z"/><path class="cls-9" d="M508.55,575.53l-14.45,9a14.48,14.48,0,0,1-20-4.6l-9-14.45a14.48,14.48,0,0,1,4.59-19.95l14.46-9a14.47,14.47,0,0,1,19.95,4.59l9,14.46A14.48,14.48,0,0,1,508.55,575.53Zm-10.39-20.61a10.49,10.49,0,1,0-3.33,14.45A10.49,10.49,0,0,0,498.16,554.92Z"/><path class="cls-10" d="M483.71,551.59a10.49,10.49,0,1,0,14.45,3.33A10.49,10.49,0,0,0,483.71,551.59Z"/><polygon class="cls-3" points="483.35 637.74 482.17 635.86 448.64 656.83 448.26 657.07 449.43 658.95 451.13 657.89 472.8 644.34 483.35 637.74"/><polygon class="cls-3" points="506.24 623.42 515.21 617.8 539.16 602.82 539.3 602.73 540.51 601.98 539.33 600.1 539.03 600.29 505.06 621.54 506.24 623.42"/><polygon class="cls-7" points="479.36 619.33 486.26 630.35 498.33 622.8 491.44 611.78 479.36 619.33"/><path class="cls-6" d="M482.17,635.86l-33.53,21L444.85,648l3.46-2.17,14.41-9-3.14-5,5-3.25,9.24-6-3.09-4.94,22.89-14.32,3.72,5.93,4-2.5-12.45-10.27a20.93,20.93,0,0,1-21.06-9.57l-11.74-18.76a21,21,0,0,1,6.65-28.86l18.76-11.73a20.94,20.94,0,0,1,28.85,6.65L522.12,553a21,21,0,0,1-.6,23.14l3.79,15.68,4.57-2.86L539,600.29l-34,21.25,1.18,1.88.68,1.08L484,638.82l-.68-1.08Zm12.95-47.22,16.65-10.41a17.18,17.18,0,0,0,5.46-23.68L506.81,537.9a17.19,17.19,0,0,0-23.68-5.45l-16.64,10.41A17.19,17.19,0,0,0,461,566.54l10.42,16.65A17.16,17.16,0,0,0,495.12,588.64Zm3.21,34.16-6.9-11-12.07,7.55,6.9,11Z"/><path class="cls-16" d="M728.67,11.05,711.42,24.9A20.88,20.88,0,0,1,704,28.72l13.56,8.74,22-17.67L734,4.66A20.76,20.76,0,0,1,728.67,11.05Z"/><polygon class="cls-3" points="679.01 67.23 683.63 63.41 681.76 61.08 663.83 75.47 669.46 82.49 682.72 71.85 679.01 67.23"/><path class="cls-17" d="M727,119.7,702.82,89.63a3.39,3.39,0,0,1-4.11-5.12l-5.11-6.37-19.93,16L707,135.69l8.46-6.78Z"/><polygon class="cls-17" points="765.97 88.39 786.55 71.87 788 70.7 754.66 29.15 732.62 46.83 765.97 88.39"/><polygon class="cls-18" points="692.12 56.4 683.63 63.41 679.01 67.23 682.72 71.85 669.46 82.49 666.27 85.05 671.08 93.38 701.92 68.62 692.12 56.4"/><path class="cls-18" d="M704.73,65.73,694.09,52.47l14.82-11.89,10.64,13.26Zm-7.32-12.92L704.77,62l11.1-8.91-7.35-9.16Z"/><polygon class="cls-18" points="713.9 40.41 722.98 51.72 754.23 26.65 743.81 16.42 739.6 19.79 717.59 37.46 713.9 40.41"/><path class="cls-6" d="M704.57,87.84l3.23-.2a21.36,21.36,0,0,1-.31-3l-3.1.19A3.39,3.39,0,0,1,704.57,87.84Z"/><path class="cls-7" d="M707.8,87.64a21.36,21.36,0,0,1-.31-3,22.05,22.05,0,1,1,.31,3Zm10.37,5.54a15.28,15.28,0,1,0,2.36-21.48A15.29,15.29,0,0,0,718.17,93.18Z"/><path class="cls-19" d="M720.53,71.7a15.28,15.28,0,1,1-2.36,21.48A15.27,15.27,0,0,1,720.53,71.7Zm1.9,18.07A9.82,9.82,0,1,0,723.94,76,9.82,9.82,0,0,0,722.43,89.77Z"/><path class="cls-7" d="M722.43,89.77A9.82,9.82,0,1,0,723.94,76,9.82,9.82,0,0,0,722.43,89.77Z"/><path class="cls-7" d="M698.79,88.66a3.43,3.43,0,0,0,4.78.52,3.27,3.27,0,0,0,1-1.34,3.39,3.39,0,0,0-.18-3,3.46,3.46,0,0,0-.29-.45,3.41,3.41,0,0,0-4.79-.53,3.62,3.62,0,0,0-.6.64A3.41,3.41,0,0,0,698.79,88.66Z"/><path class="cls-18" d="M682,21.67a20.92,20.92,0,0,0,29.44,3.23l17.25-13.85A20.76,20.76,0,0,0,734,4.66,20.83,20.83,0,0,0,735.81,0H730.1a17.1,17.1,0,0,1-5.52,7.93L709.26,20.22a17.18,17.18,0,0,1-24.15-2.65L672.82,2.26A17.52,17.52,0,0,1,671.3,0h-5.86a21.39,21.39,0,0,0,2.7,4.42Z"/><path class="cls-8" d="M685.11,17.57a17.18,17.18,0,0,0,24.15,2.65L724.58,7.93A17.1,17.1,0,0,0,730.1,0h-4.78a14.37,14.37,0,0,1-4.26,5.62L707.77,16.29a14.47,14.47,0,0,1-20.35-2.23L676.75.76c-.2-.24-.38-.5-.56-.76H671.3a17.52,17.52,0,0,0,1.52,2.26Z"/><path class="cls-9" d="M687.42,14.06a14.47,14.47,0,0,0,20.35,2.23L721.06,5.62A14.37,14.37,0,0,0,725.32,0H707.88a10.28,10.28,0,0,1-1.17,1.11A10.48,10.48,0,0,1,692.42,0H676.19c.18.26.36.52.56.76Z"/><path class="cls-10" d="M706.71,1.11A10.28,10.28,0,0,0,707.88,0H692.42A10.48,10.48,0,0,0,706.71,1.11Z"/><path class="cls-3" d="M723,51.72l31.25-25.07.28-.22,1.38,1.72-1.1.89L788.13,70.6l.78-.62,3.76,4.67-83.45,67-3.76-4.68,1.56-1.25,8.46-6.78L727,119.7,702.82,89.63a3.39,3.39,0,0,0,.75-.45,3.27,3.27,0,0,0,1-1.34l3.23-.2a23,23,0,1,0-.31-3l-3.1.19a3.46,3.46,0,0,0-.29-.45,3.41,3.41,0,0,0-4.79-.53,3.62,3.62,0,0,0-.6.64l-5.11-6.37-19.93,16-1.56,1.26-1.39-1.73.36-.28,30.84-24.76,2.19,2.73,21.06-16.9Zm31.68-22.57-22,17.68L766,88.39l20.58-16.52L788,70.71Z"/><polygon class="cls-19" points="715.87 53.06 708.52 43.9 697.41 52.81 704.77 61.97 715.87 53.06"/><path class="cls-16" d="M701.92,68.62l-9.8-12.22-3.65-4.55,21-16.89,4.39,5.45L723,51.72l2.19,2.73-21.06,16.9Zm-7.83-16.15,10.64,13.26,14.82-11.89L708.91,40.58Z"/><path class="cls-6" d="M107.76,772.48a20.93,20.93,0,0,0-27.41-11.19L60,769.85a21,21,0,0,0-11.2,27.42L49.9,800h5.42l-1.48-3.52A17.19,17.19,0,0,1,63,774l18.11-7.6a17.18,17.18,0,0,1,22.49,9.18l7.61,18.11a17.29,17.29,0,0,1,1.32,6.33h5.36a21.21,21.21,0,0,0-1.59-7.12Z"/><path class="cls-8" d="M103.63,775.56a17.18,17.18,0,0,0-22.49-9.18L63,774a17.19,17.19,0,0,0-9.19,22.5L55.32,800h4.34L58,796.12a14.48,14.48,0,0,1,7.74-19l15.72-6.6a14.47,14.47,0,0,1,19,7.74L107.05,794a14.41,14.41,0,0,1,1.11,6h4.4a17.29,17.29,0,0,0-1.32-6.33Z"/><path class="cls-9" d="M107.05,794l-6.61-15.72a14.47,14.47,0,0,0-19-7.74l-15.72,6.6a14.48,14.48,0,0,0-7.74,19L59.66,800h13.8c-.16-.29-.3-.6-.44-.91a10.49,10.49,0,1,1,18.9.91h16.24A14.41,14.41,0,0,0,107.05,794Z"/><path class="cls-10" d="M92.36,791A10.49,10.49,0,1,0,73,799.09c.14.31.28.62.44.91H91.92A10.44,10.44,0,0,0,92.36,791Z"/><path class="cls-11" d="M311.47,739.16l-36.18,39.11,7.77,7.19.87-.94L300.67,800h16.26l-.52-2.45a22.11,22.11,0,1,1,2.91-.75L320,800l.12,0h3.24l24.85-26.87Z"/><polygon class="cls-11" points="290.74 719.98 290.62 719.86 254.43 758.97 254.56 759.09 290.74 719.98"/><polygon class="cls-12" points="348.2 773.13 323.35 800 358.16 800 366.96 790.49 348.2 773.13"/><polygon class="cls-12" points="254.56 759.09 275.29 778.27 311.48 739.16 290.74 719.98 254.56 759.09"/><polygon class="cls-3" points="311.48 739.16 348.2 773.13 366.96 790.49 368.43 791.84 372.5 787.44 293.96 714.78 289.88 719.18 290.62 719.86 290.74 719.98 311.48 739.16"/><path class="cls-6" d="M318.2,800h-1.27l-.52-2.45a22.11,22.11,0,1,1,2.91-.75L320,800A3.4,3.4,0,0,0,318.2,800Zm5.07-14.28a15.28,15.28,0,1,0-21.59.84A15.27,15.27,0,0,0,323.27,785.72Z"/><path class="cls-7" d="M301.68,786.56a15.28,15.28,0,1,1,21.59-.84A15.26,15.26,0,0,1,301.68,786.56ZM319.27,782a9.83,9.83,0,1,0-13.89.54A9.82,9.82,0,0,0,319.27,782Z"/><path class="cls-6" d="M319.27,782a9.83,9.83,0,1,0-13.89.54A9.82,9.82,0,0,0,319.27,782Z"/><path class="cls-7" d="M318.2,800h1.91l-.12,0A3.4,3.4,0,0,0,318.2,800Z"/><path class="cls-8" d="M213.73,792.91,207.17,800h5.45l3.16-3.42a14.49,14.49,0,0,1,20.46-.8L240.8,800h5.89L238,792A17.17,17.17,0,0,0,213.73,792.91Z"/><path class="cls-9" d="M215.78,796.58,212.62,800H240.8l-4.56-4.22A14.49,14.49,0,0,0,215.78,796.58Z"/><polygon class="cls-3" points="283.06 785.46 275.29 778.27 254.56 759.09 254.43 758.97 253.39 758.01 251.88 759.64 252.15 759.88 281.56 787.09 283.06 785.46"/><polygon class="cls-7" points="278.3 800 291.83 800 284.54 793.25 278.3 800"/><path class="cls-6" d="M283.06,785.46l-1.51,1.63-29.4-27.21-8.59,11.81,4,3.67-14.14,7.77a20.93,20.93,0,0,0-22.48,5.48L200.36,800h6.81l6.56-7.09A17.17,17.17,0,0,1,238,792l8.69,8h19.08l2.47-5.47,3.47,3.2-2.1,2.27h8.69l6.24-6.75,7.29,6.75h8.84l-16.74-15.48Z"/><path class="cls-12" d="M541,795.67l-28.1,2.74-6.56-14.74a20.94,20.94,0,0,1-14.59-18l-2.15-22a20.94,20.94,0,0,1,18.81-22.88l22-2.14a20.93,20.93,0,0,1,22.87,18.8l2.14,22a20.92,20.92,0,0,1-10.85,20.44Zm-25.63-16.25,19.54-1.9a17.18,17.18,0,0,0,15.44-18.77l-1.91-19.55a17.18,17.18,0,0,0-18.77-15.43l-19.54,1.91a17.17,17.17,0,0,0-15.43,18.77L496.6,764A17.18,17.18,0,0,0,515.37,779.42Z"/><polygon class="cls-3" points="455.38 800 470.14 800 470 798.57 455.38 800"/><polygon class="cls-20" points="541 795.67 512.9 798.41 508.21 798.87 508.32 800 547.43 800 546.37 795.15 541 795.67"/><polygon class="cls-20" points="485.02 798.11 485.21 800 489.82 800 501.79 798.83 501.91 800 504.3 800 503.94 796.27 485.02 798.11"/><path class="cls-8" d="M496.6,764l-1.9-19.54a17.17,17.17,0,0,1,15.43-18.77l19.54-1.91a17.18,17.18,0,0,1,18.77,15.43l1.91,19.55a17.18,17.18,0,0,1-15.44,18.77l-19.54,1.9A17.18,17.18,0,0,1,496.6,764Zm19.67,11.33,17-1.66a14.46,14.46,0,0,0,13-15.81l-1.65-17a14.48,14.48,0,0,0-15.82-13l-17,1.65a14.49,14.49,0,0,0-13,15.82l1.66,17A14.48,14.48,0,0,0,516.27,775.32Z"/><path class="cls-9" d="M500.46,762.31l-1.66-17a14.49,14.49,0,0,1,13-15.82l17-1.65a14.48,14.48,0,0,1,15.82,13l1.65,17a14.46,14.46,0,0,1-13,15.81l-17,1.66A14.48,14.48,0,0,1,500.46,762.31Zm11.78-9.69a10.49,10.49,0,1,0,9.42-11.46A10.5,10.5,0,0,0,512.24,752.62Z"/><path class="cls-10" d="M523.7,762a10.49,10.49,0,1,0-11.46-9.42A10.5,10.5,0,0,0,523.7,762Z"/><polygon class="cls-19" points="489.82 800 501.91 800 501.79 798.83 489.82 800"/><polygon class="cls-5" points="507.53 791.9 480.66 794.52 481.19 800 485.21 800 485.02 798.11 503.94 796.27 504.3 800 508.32 800 508.21 798.87 507.53 791.9"/><path class="cls-18" d="M731.9,781.62l-13.85-17.26a20.93,20.93,0,0,0-29.43-3.22L671.37,775a20.93,20.93,0,0,0-5.93,25h5.86a17.17,17.17,0,0,1,4.16-21.89l15.32-12.3a17.19,17.19,0,0,1,24.15,2.65l12.29,15.32A17.16,17.16,0,0,1,730.1,800h5.71A20.89,20.89,0,0,0,731.9,781.62Z"/><path class="cls-8" d="M727.22,783.78l-12.29-15.32a17.19,17.19,0,0,0-24.15-2.65l-15.32,12.3A17.17,17.17,0,0,0,671.3,800h4.89A14.48,14.48,0,0,1,679,780.41l13.29-10.67A14.48,14.48,0,0,1,712.62,772l10.67,13.3a14.45,14.45,0,0,1,2,14.73h4.78A17.16,17.16,0,0,0,727.22,783.78Z"/><path class="cls-9" d="M723.29,785.27,712.62,772a14.48,14.48,0,0,0-20.35-2.23L679,780.41A14.48,14.48,0,0,0,676.19,800h16.23l-.45-.51a10.49,10.49,0,1,1,15.91.51h17.44A14.45,14.45,0,0,0,723.29,785.27Z"/><path class="cls-10" d="M708.33,786.37A10.49,10.49,0,0,0,692,799.49l.45.51h15.46A10.48,10.48,0,0,0,708.33,786.37Z"/><path class="cls-12" d="M718.1,609.71l-27.39,6.82-8.66-13.61A21,21,0,0,1,665,587.29l-5.35-21.46a20.94,20.94,0,0,1,15.25-25.39l21.47-5.35a21,21,0,0,1,25.38,15.26l5.35,21.46a21,21,0,0,1-7.74,21.81Zm-27.74-12.32,19.06-4.75a17.16,17.16,0,0,0,12.51-20.82l-4.75-19.06a17.16,17.16,0,0,0-20.82-12.51L677.3,545a17.18,17.18,0,0,0-12.51,20.83l4.75,19.06A17.17,17.17,0,0,0,690.36,597.39Z"/><polygon class="cls-3" points="643.21 627.42 649.01 625.88 648.29 622.98 625.97 628.55 628.15 637.28 644.64 633.17 643.21 627.42"/><path class="cls-17" d="M655.45,657.73a3.39,3.39,0,0,1-1.58-6.37l-2-7.92-24.79,6.17L640,701.32l24.8-6.18Z"/><polygon class="cls-17" points="727.85 624.51 700.44 631.34 713.32 683.04 723.86 680.41 740.74 676.21 727.85 624.51"/><polygon class="cls-20" points="659.64 623.07 649.01 625.88 643.21 627.42 644.64 633.17 628.15 637.28 624.18 638.27 625.06 647.84 663.43 638.27 659.64 623.07"/><polygon class="cls-20" points="728.5 622.06 723.33 608.4 718.1 609.71 690.71 616.53 686.13 617.67 689.63 631.75 728.5 622.06"/><path class="cls-20" d="M667.19,636.82l-4.11-16.49,18.44-4.6,4.11,16.5ZM666,622l2.84,11.41L682.62,630l-2.84-11.4Z"/><path class="cls-3" d="M741.87,675.92l1.45,5.83L639.49,707.62,638,701.8l1.94-.48,24.8-6.18-9.33-37.41a3.68,3.68,0,0,0,.87-.09,3.27,3.27,0,0,0,1.47-.81l3,1.18a22.74,22.74,0,1,0,1-2.85L658.88,654a3.21,3.21,0,0,0-.07-.53,3.42,3.42,0,0,0-4.13-2.48,3.06,3.06,0,0,0-.81.33l-2-7.92-24.79,6.17-2,.49-.53-2.15.44-.11,38.38-9.57.84,3.4,26.2-6.53-.85-3.39,38.87-9.69.35-.09.54,2.15-1.38.34,12.88,51.71Zm-18,4.49,16.88-4.2-12.89-51.7-27.41,6.83L713.32,683Z"/><path class="cls-6" d="M657.79,656.83l3,1.18a21.65,21.65,0,0,1,1-2.85L658.88,654A3.37,3.37,0,0,1,657.79,656.83Z"/><path class="cls-7" d="M660.81,658a21.65,21.65,0,0,1,1-2.85,22.51,22.51,0,1,1-1,2.85Zm7.1,9.37A15.28,15.28,0,1,0,679,648.86,15.28,15.28,0,0,0,667.91,667.38Z"/><path class="cls-19" d="M679,648.86a15.28,15.28,0,1,1-11.13,18.52A15.29,15.29,0,0,1,679,648.86Zm-5.84,17.2a9.83,9.83,0,1,0,7.16-11.9A9.83,9.83,0,0,0,673.2,666.06Z"/><path class="cls-7" d="M673.2,666.06a9.83,9.83,0,1,0,7.16-11.9A9.83,9.83,0,0,0,673.2,666.06Z"/><path class="cls-7" d="M652.2,655.16a3.41,3.41,0,0,0,3.25,2.57,3.68,3.68,0,0,0,.87-.09,3.27,3.27,0,0,0,1.47-.81,3.37,3.37,0,0,0,1.09-2.79,3.21,3.21,0,0,0-.07-.53,3.42,3.42,0,0,0-4.13-2.48,3.06,3.06,0,0,0-.81.33A3.38,3.38,0,0,0,652.2,655.16Z"/><path class="cls-8" d="M669.54,584.88l-4.75-19.06A17.18,17.18,0,0,1,677.3,545l19.06-4.74a17.16,17.16,0,0,1,20.82,12.51l4.75,19.06a17.16,17.16,0,0,1-12.51,20.82l-19.06,4.75A17.17,17.17,0,0,1,669.54,584.88Zm21.11,8.32,16.54-4.13a14.47,14.47,0,0,0,10.55-17.54L713.62,555a14.48,14.48,0,0,0-17.55-10.55l-16.54,4.12A14.48,14.48,0,0,0,669,566.11l4.12,16.54A14.48,14.48,0,0,0,690.65,593.2Z"/><path class="cls-9" d="M673.1,582.65,669,566.11a14.48,14.48,0,0,1,10.55-17.55l16.54-4.12A14.48,14.48,0,0,1,713.62,555l4.12,16.54a14.47,14.47,0,0,1-10.55,17.54l-16.54,4.13A14.48,14.48,0,0,1,673.1,582.65Zm23-3.68a10.49,10.49,0,1,0-12.72-7.64A10.49,10.49,0,0,0,696.06,579Z"/><path class="cls-10" d="M696.06,579a10.49,10.49,0,1,0-12.72-7.64A10.49,10.49,0,0,0,696.06,579Z"/><polygon class="cls-19" points="682.62 629.98 679.77 618.58 665.96 622.02 668.8 633.43 682.62 629.98"/><path class="cls-5" d="M663.44,638.27l-3.79-15.2-1.41-5.66,26.19-6.53,1.7,6.79,3.5,14.08.85,3.39-26.2,6.53Zm-.36-17.94,4.11,16.49,18.44-4.59-4.11-16.5Z"/><polygon class="cls-3" points="392.57 409.75 389.71 415.02 392.31 416.48 403.57 396.43 395.72 392.02 387.4 406.85 392.57 409.75"/><path class="cls-18" d="M306.29,423.93l2,1.15h0l4.62,2.59h0l4.13,2.32h0l3.85,2.16h0l4,2.22h0l6.53,3.66h0l3.74,2.1h0l15.31,8.59,5.18-9.23-1.12-.63,13.21-23.55,1.12.63,5.95-10.59-7.07-4a3,3,0,0,1-.22.52,3.41,3.41,0,0,1-4.64,1.31,3.47,3.47,0,0,1-.44-.31l-2.78,1.33a22.65,22.65,0,1,1-9.52-10.33,22.39,22.39,0,0,1,8.09,7.68l2.93-1.39a3.29,3.29,0,0,1,.42-1.62,2.51,2.51,0,0,1,.32-.46L358.07,396h0l-.7-.39-12.09-6.79-1.44-.8h0l-15.5-8.7-13,23.2L304,422.65l2.29,1.28Z"/><path class="cls-18" d="M374.8,445.65,360,437.33l9.3-16.57,14.82,8.32Zm-.57-3.06,7-12.42-11.34-6.36-7,12.42Z"/><polygon class="cls-18" points="384.46 424.69 389.71 415.02 392.57 409.75 387.4 406.85 395.72 392.02 397.71 388.46 390.15 382.53 370.8 417.02 384.46 424.69"/><polygon class="cls-18" points="370.23 447.67 357.59 440.57 337.99 475.51 351.47 481.11 354.11 476.4 367.92 451.79 370.23 447.67"/><polygon class="cls-3" points="328.34 379.28 338.88 360.49 338.88 360.49 339.13 360.04 340.98 356.73 340.99 356.73 341.96 354.99 336.73 352.05 284.38 445.37 289.61 448.31 315.32 402.48 328.34 379.28 328.34 379.28"/><path class="cls-6" d="M434.16,492.44l-10.83,19.3a20.93,20.93,0,0,1-28.5,8l-19.3-10.82A21,21,0,0,1,365,488.34L354.11,476.4l13.81-24.61,15.85,3a21,21,0,0,1,23.08-1.71l19.29,10.83A20.94,20.94,0,0,1,434.16,492.44Zm-11.55-24.75-17.13-9.61a17.18,17.18,0,0,0-23.39,6.58l-9.6,17.13a17.18,17.18,0,0,0,6.57,23.39l17.13,9.6a17.17,17.17,0,0,0,23.39-6.57l9.61-17.13A17.18,17.18,0,0,0,422.61,467.69Z"/><path class="cls-8" d="M429.19,491.08l-9.61,17.13a17.17,17.17,0,0,1-23.39,6.57l-17.13-9.6a17.18,17.18,0,0,1-6.57-23.39l9.6-17.13a17.18,17.18,0,0,1,23.39-6.58l17.13,9.61A17.18,17.18,0,0,1,429.19,491.08Zm-9.67-20.54-14.86-8.34A14.47,14.47,0,0,0,385,467.75l-8.34,14.86a14.48,14.48,0,0,0,5.54,19.71L397,510.66a14.47,14.47,0,0,0,19.7-5.54l8.35-14.87A14.48,14.48,0,0,0,419.52,470.54Z"/><path class="cls-9" d="M425.07,490.25l-8.35,14.87a14.47,14.47,0,0,1-19.7,5.54l-14.87-8.34a14.48,14.48,0,0,1-5.54-19.71L385,467.75a14.47,14.47,0,0,1,19.71-5.55l14.86,8.34A14.48,14.48,0,0,1,425.07,490.25Zm-19.19-12.83a10.49,10.49,0,1,0,4,14.27A10.49,10.49,0,0,0,405.88,477.42Z"/><path class="cls-10" d="M405.88,477.42a10.49,10.49,0,1,0,4,14.27A10.49,10.49,0,0,0,405.88,477.42Z"/><polygon class="cls-3" points="375 405.45 374.81 405.35 368.86 415.94 370.8 417.02 390.15 382.53 390.37 382.14 388.44 381.05 387.45 382.8 387.64 382.91 375 405.45"/><polygon class="cls-3" points="355.65 439.49 350.48 448.72 350.66 448.83 343.72 461.2 343.72 461.2 340.5 466.94 340.5 466.94 336.76 473.61 336.57 473.5 335.88 474.74 337.81 475.83 337.99 475.51 357.59 440.57 355.65 439.49"/><polygon class="cls-6" points="369.85 423.81 362.89 436.23 374.23 442.59 381.19 430.18 369.85 423.81"/><path class="cls-6" d="M370.8,417l13.66,7.66,5.09,2.85-13.21,23.55-6.11-3.42-12.64-7.1-1.94-1.08-1.12-.63,13.21-23.55,1.12.63ZM360,437.33l14.82,8.32,9.3-16.57-14.82-8.32Z"/><path class="cls-21" d="M336.76,473.61l-.19-.11-35.21-19.75,4.08,2.29s-3.09-5.73-5.95-10.62-3.2-7.09-2.53-9.23c0,0-2,5.73-1.2,7.13s2.78,3.75,3.82,6.13a5.87,5.87,0,0,1,.67,3.67l-10.15-5.69L304,422.65h0l2.29,1.28a26.06,26.06,0,0,1-.91,3.63c-.7,2.26-2.34,5.44-1.92,7.7s.79,5.13,2.06,6.93a55.6,55.6,0,0,1,3.29,6.22c.6-.75-.07-5.47-.78-7.59a14.33,14.33,0,0,1-1.2-6.54c.19-2.86,1.5-9.2,1.5-9.2l4.62,2.59s-1.33,3.62-.93,4.47a14.42,14.42,0,0,1,1.91,7.52c-.08,4.21-1.24,8.78.07,13s.2,4.95,1.32,7.13,5.22,3.78,5.22,3.78c-.55-1.42-2.81-2.58-2.81-6.65s-2.59-8.18-2.65-13.05,2-13.88,2-13.88l3.85,2.16a27.59,27.59,0,0,1,1.27,8.29c-.24,3.55-1.67,6.73-.6,8.88s2.39,7.36,2.2,9.84c0,0,1.66-6.41,1.64-6.69s-2.61-5-2.06-7.25,1-5.5,1.21-6.53a41.36,41.36,0,0,0,.31-4.32l6.53,3.66c1.19.68.68,3.79,1.23,6.23a32.51,32.51,0,0,0,2,5.48,20,20,0,0,0,.11-4.88,14.53,14.53,0,0,1,.38-4.73l15.31,8.59.19.11-6.94,12.37a5.58,5.58,0,0,1-1.79-4c-.11-2.69-.2-6.38-.12-8.08s-3.82-5.24-3.82-5.24c1.48,1.41,2.57,3.77,2.19,9.74a102.73,102.73,0,0,0,.32,13.34Zm-7.08-28.82c-.12,2.48-.34,7.15.17,8.77.7,2.24,2.22,5.2,1.93,7.3s2.1,6,2.58,7.26,2.86,4.67,2.52,5.29l2.21-3.93s-4.38-6.67-4.64-9.07a12.63,12.63,0,0,0-2.07-6,32,32,0,0,1-2.7-9.6,14,14,0,0,1,.17-1.57c.21-.94.15,0,.15,0h0c0,.1-.2.21-.23.35A4.12,4.12,0,0,0,329.68,444.79Z"/><path class="cls-22" d="M329.85,453.56c.69,2.24,2.22,5.2,1.93,7.3s2.1,6,2.58,7.26,2.86,4.67,2.51,5.29l2.21-3.93s-4.39-6.67-4.65-9.07a12.76,12.76,0,0,0-2.08-6,31.73,31.73,0,0,1-2.74-9.6C329.49,447.27,329.34,451.94,329.85,453.56Z"/><path class="cls-22" d="M330,443.21h0Z"/><path class="cls-22" d="M329.62,443.57a4.33,4.33,0,0,0,0,1.22c0-.93.08-1.55.09-1.57S329.65,443.43,329.62,443.57Z"/><path class="cls-22" d="M306.29,423.93h0a26.06,26.06,0,0,1-.91,3.63c-.7,2.26-2.34,5.44-1.92,7.7s.79,5.13,2.06,6.93a55.6,55.6,0,0,1,3.29,6.22c.6-.75-.07-5.47-.78-7.59a14.33,14.33,0,0,1-1.2-6.54c.19-2.86,1.5-9.2,1.5-9.2h0Z"/><path class="cls-22" d="M320.93,432.15h0a27.59,27.59,0,0,1,1.27,8.29c-.24,3.55-1.67,6.73-.6,8.88s2.39,7.36,2.2,9.84c0,0,1.66-6.41,1.64-6.69s-2.61-5-2.06-7.25,1-5.5,1.21-6.53a41.36,41.36,0,0,0,.31-4.32h0Z"/><path class="cls-22" d="M341.93,457.18c-.11-2.69-.2-6.38-.12-8.08s-3.82-5.24-3.82-5.24c1.48,1.41,2.57,3.77,2.19,9.74a102.73,102.73,0,0,0,.32,13.34h0l3.22-5.74h0A5.58,5.58,0,0,1,341.93,457.18Z"/><path class="cls-22" d="M331.42,438h0c1.19.68.68,3.79,1.23,6.23a32.51,32.51,0,0,0,2,5.48,20,20,0,0,0,.11-4.88,14.53,14.53,0,0,1,.38-4.73h0Z"/><path class="cls-22" d="M313,427.67h0s-1.33,3.62-.93,4.47a14.42,14.42,0,0,1,1.91,7.52c-.08,4.21-1.24,8.78.07,13s.2,4.95,1.32,7.13,5.22,3.78,5.22,3.78c-.55-1.42-2.81-2.58-2.81-6.65s-2.59-8.18-2.65-13.05,2-13.88,2-13.88h0Z"/><path class="cls-22" d="M305.44,456s-3.09-5.73-5.95-10.62-3.2-7.09-2.53-9.23c0,0-2,5.73-1.2,7.13s2.78,3.75,3.82,6.13a5.87,5.87,0,0,1,.67,3.67h0l1.11.63Z"/><path class="cls-21" d="M341,356.73h0l46.47,26.07.18.11L375,405.45l-.19-.1-7.07-4a3.39,3.39,0,0,0-.95-3.7,2.51,2.51,0,0,0,0-1.38,13.78,13.78,0,0,1-2.16-7.07c-.08-3.92.88-8.13-.57-12.11s-.38-4.62-1.57-6.7-5.25-3.71-5.25-3.71c.6,1.33,2.85,2.51,3,6.29s2.85,7.72,3.11,12.27-1.33,12.33-1.42,12.8l0,0L358.07,396a25.76,25.76,0,0,1-1.56-7.78c.09-3.29,1.37-6.2.24-8.24s-2.62-6.95-2.53-9.25c0,0-1.37,5.9-1.34,6.17s2.74,4.79,2.29,6.83-.74,5.08-.93,6a35.43,35.43,0,0,0-.14,4l3.27,1.84-12.09-6.79,2.3,1.29c-1.2-.67-.82-3.55-1.45-5.85a31.57,31.57,0,0,0-2.18-5.17,18,18,0,0,0,.08,4.54,12.63,12.63,0,0,1-.19,4.39l-15.5-8.7h0l10.53-18.79s4.56,6.38,4.9,8.63A12.35,12.35,0,0,0,346,374.8a30.92,30.92,0,0,1,3,9c0,.87,0,1.44-.05,1.46-.17.87,0,0,0,0h0a2.22,2.22,0,0,1,.1-.32,3.6,3.6,0,0,0,0-1.14c0-2.3,0-6.64-.57-8.17-.77-2.12-2.38-4.93-2.17-6.87s-2.29-5.69-2.8-6.86-3-4.47-2.67-5L339.13,360Zm-.05,27.66c-1.5-1.37-2.66-3.6-2.52-9.16a90.25,90.25,0,0,0-.83-12.43L334.65,368a5.61,5.61,0,0,1,1.91,3.81c.22,2.51.44,6,.43,7.53S340.93,384.39,340.93,384.39Zm40.44,8.72s1.72-5.25.9-6.6-2.87-3.59-4-5.84-.79-3.45-.79-3.45l-5.2-2.92s3.25,5.46,6.23,10.12S381.94,391.15,381.37,393.11Zm-7.91,7.72c.6-2.08,2.08-5,1.58-7.1s-1-4.81-2.28-6.53a57.22,57.22,0,0,1-3.46-5.93c-.56.68.28,5.1,1.06,7.1a13.48,13.48,0,0,1,1.42,6.15c-.08,2.65-1.11,8.51-1.11,8.51l2,1.14A21.76,21.76,0,0,1,373.46,400.83Z"/><path class="cls-22" d="M349,385.31h0Z"/><path class="cls-22" d="M349.13,385a3.82,3.82,0,0,0,0-1.14c0,.87,0,1.44,0,1.46S349.11,385.11,349.13,385Z"/><path class="cls-22" d="M343.78,369.12A12.32,12.32,0,0,0,346,374.8a30.36,30.36,0,0,1,3,9c0-2.3,0-6.64-.57-8.17-.77-2.12-2.38-4.93-2.17-6.87s-2.29-5.69-2.8-6.86-3-4.47-2.67-5L339.13,360l-.25.45h0S343.43,366.87,343.78,369.12Z"/><path class="cls-22" d="M375,393.73c-.5-2.13-1-4.81-2.28-6.53a57.22,57.22,0,0,1-3.46-5.93c-.56.68.28,5.1,1.06,7.1a13.48,13.48,0,0,1,1.42,6.15c-.08,2.65-1.11,8.51-1.11,8.51l2,1.14a21.76,21.76,0,0,1,.75-3.34C374.06,398.75,375.54,395.85,375,393.73Z"/><path class="cls-22" d="M356.75,379.94c-1.13-2.05-2.62-6.95-2.53-9.25,0,0-1.37,5.9-1.34,6.17s2.74,4.79,2.29,6.83-.74,5.08-.93,6a35.43,35.43,0,0,0-.14,4l3.27,1.84.7.39h0a25.76,25.76,0,0,1-1.56-7.78C356.6,384.89,357.88,382,356.75,379.94Z"/><path class="cls-22" d="M338.41,375.23a90.25,90.25,0,0,0-.83-12.43L334.65,368a5.61,5.61,0,0,1,1.91,3.81c.22,2.51.44,6,.43,7.53s3.94,5,3.94,5C339.43,383,338.27,380.79,338.41,375.23Z"/><path class="cls-22" d="M346.13,384.22a31.57,31.57,0,0,0-2.18-5.17,18,18,0,0,0,.08,4.54,12.37,12.37,0,0,1-.19,4.39h0l1.44.8,2.3,1.29C346.38,389.4,346.76,386.52,346.13,384.22Z"/><path class="cls-22" d="M366.21,397.27a3.54,3.54,0,0,1,.58.41,2.51,2.51,0,0,0,0-1.38,13.78,13.78,0,0,1-2.16-7.07c-.08-3.92.88-8.13-.57-12.11s-.38-4.62-1.57-6.7-5.25-3.71-5.25-3.71c.6,1.33,2.85,2.51,3,6.29s2.85,7.72,3.11,12.27-1.33,12.33-1.42,12.8A3.4,3.4,0,0,1,366.21,397.27Z"/><path class="cls-22" d="M382.27,386.51c-.83-1.34-2.87-3.59-4-5.84s-.79-3.45-.79-3.45l-5.2-2.92s3.25,5.46,6.23,10.12,3.41,6.73,2.84,8.69C381.37,393.11,383.09,387.86,382.27,386.51Z"/><path class="cls-6" d="M362.44,402.9l-2.78,1.33a22.65,22.65,0,1,1-9.52-10.33,22.39,22.39,0,0,1,8.09,7.68l2.93-1.39A3.36,3.36,0,0,0,362.44,402.9Zm-15.9-2.58a15.29,15.29,0,1,0,5.85,20.81A15.29,15.29,0,0,0,346.54,400.32Z"/><path class="cls-7" d="M352.39,421.13a15.29,15.29,0,1,1-5.85-20.81A15.29,15.29,0,0,1,352.39,421.13Zm-8.52-16.05a9.83,9.83,0,1,0,3.76,13.38A9.82,9.82,0,0,0,343.87,405.08Z"/><path class="cls-6" d="M343.87,405.08a9.83,9.83,0,1,0,3.76,13.38A9.82,9.82,0,0,0,343.87,405.08Z"/><path class="cls-7" d="M366.79,397.68a3.54,3.54,0,0,0-.58-.41,3.4,3.4,0,0,0-4.28.8l0,0a2.51,2.51,0,0,0-.32.46,3.29,3.29,0,0,0-.42,1.62,3.36,3.36,0,0,0,1.28,2.71,3.47,3.47,0,0,0,.44.31,3.41,3.41,0,0,0,4.64-1.31,3,3,0,0,0,.22-.52A3.39,3.39,0,0,0,366.79,397.68Z"/><polygon class="cls-3" points="75.28 622.94 81.12 624.33 81.85 621.43 59.55 615.81 57.35 624.53 73.83 628.69 75.28 622.94"/><path class="cls-17" d="M71.78,655.45a3.39,3.39,0,0,1,1.6-6.36l2-7.92L50.6,634.91l-13,51.67,24.77,6.25Z"/><polygon class="cls-17" points="110.85 705.07 138.25 711.98 151.28 660.32 123.89 653.41 110.85 705.07"/><path class="cls-20" d="M96.15,626.07l18.42,4.65-4.16,16.49L92,642.56Zm1.74,2.86L95,640.32l13.81,3.48,2.87-11.39Z"/><polygon class="cls-20" points="91.83 626.87 81.12 624.33 75.28 622.94 73.83 628.69 57.35 624.53 53.39 623.53 49.64 632.39 87.99 642.06 91.83 626.87"/><polygon class="cls-20" points="117.72 634.61 114.17 648.67 153.01 658.47 154.89 643.99 149.66 642.67 122.29 635.76 117.72 634.61"/><path class="cls-6" d="M74.26,655.76l2.1,2.46a23.52,23.52,0,0,1,2.18-2.06l-2-2.35A3.42,3.42,0,0,1,74.26,655.76Z"/><path class="cls-7" d="M78.54,656.16a22.4,22.4,0,1,1-2.18,2.06A23.52,23.52,0,0,1,78.54,656.16Zm-.34,13.68a15.28,15.28,0,1,0,18.56-11.08A15.28,15.28,0,0,0,78.2,669.84Z"/><path class="cls-19" d="M96.76,658.76A15.28,15.28,0,1,1,78.2,669.84,15.28,15.28,0,0,1,96.76,658.76ZM83.49,671.17a9.82,9.82,0,1,0,11.93-7.12A9.82,9.82,0,0,0,83.49,671.17Z"/><path class="cls-7" d="M83.49,671.17a9.82,9.82,0,1,0,11.93-7.12A9.82,9.82,0,0,0,83.49,671.17Z"/><path class="cls-7" d="M70.12,651.65a3.39,3.39,0,0,0,1.66,3.8,3.14,3.14,0,0,0,.8.33,3.45,3.45,0,0,0,4-2,3.68,3.68,0,0,0,.18-.5,3.41,3.41,0,0,0-2.47-4.13,2.87,2.87,0,0,0-.87-.09A3.37,3.37,0,0,0,70.12,651.65Z"/><path class="cls-12" d="M180.88,592.05l-5.41,21.45a21,21,0,0,1-17.11,15.58l-8.7,13.59-27.37-6.91-1.2-16.08a21,21,0,0,1-7.67-21.84l5.41-21.45a20.94,20.94,0,0,1,25.43-15.18l21.45,5.42A20.93,20.93,0,0,1,180.88,592.05Zm-17.6-20.88-19-4.8a17.18,17.18,0,0,0-20.87,12.45l-4.8,19A17.18,17.18,0,0,0,131,618.72l19,4.81a17.18,17.18,0,0,0,20.87-12.46l4.8-19A17.18,17.18,0,0,0,163.28,571.17Z"/><path class="cls-8" d="M175.73,592l-4.8,19a17.18,17.18,0,0,1-20.87,12.46l-19-4.81a17.18,17.18,0,0,1-12.45-20.86l4.8-19a17.18,17.18,0,0,1,20.87-12.45l19,4.8A17.18,17.18,0,0,1,175.73,592ZM161,574.73l-16.53-4.17a14.46,14.46,0,0,0-17.57,10.49l-4.18,16.54a14.48,14.48,0,0,0,10.5,17.57l16.53,4.17a14.48,14.48,0,0,0,17.58-10.49l4.17-16.53A14.49,14.49,0,0,0,161,574.73Z"/><path class="cls-9" d="M171.54,592.31l-4.17,16.53a14.48,14.48,0,0,1-17.58,10.49l-16.53-4.17a14.48,14.48,0,0,1-10.5-17.57l4.18-16.54a14.46,14.46,0,0,1,17.57-10.49L161,574.73A14.49,14.49,0,0,1,171.54,592.31Zm-21.67-7.48a10.49,10.49,0,1,0,7.6,12.74A10.5,10.5,0,0,0,149.87,584.83Z"/><path class="cls-10" d="M149.87,584.83a10.49,10.49,0,1,0,7.6,12.74A10.5,10.5,0,0,0,149.87,584.83Z"/><path class="cls-3" d="M114.17,648.67l38.84,9.8.35.09-.54,2.15-1.38-.35L138.4,712l1,.25-1.47,5.82L34.16,691.91l1.47-5.82,1.94.49,24.77,6.25,9.44-37.38a3.14,3.14,0,0,0,.8.33,3.41,3.41,0,0,0,1.68,0l2.1,2.46a22.75,22.75,0,1,0,2.18-2.06l-2-2.35a3.68,3.68,0,0,0,.18-.5,3.41,3.41,0,0,0-2.47-4.13,2.87,2.87,0,0,0-.87-.09l2-7.92L50.6,634.91l-1.94-.49.54-2.15.44.12L88,642.06l-.86,3.4,26.18,6.6Zm37.11,11.65-27.39-6.91-13,51.66,27.4,6.91Z"/><polygon class="cls-19" points="108.82 643.8 111.69 632.41 97.89 628.93 95.01 640.32 108.82 643.8"/><path class="cls-5" d="M88,642.06l3.84-15.19,1.42-5.65,26.18,6.6-1.71,6.79-3.55,14.06-.86,3.39-26.18-6.6Zm26.58-11.34-18.42-4.65L92,642.56l18.42,4.65Z"/></pattern></defs><title>Recurso 1</title><g id="Capa_2" data-name="Capa 2"><g id="background"><rect class="cls-23" width="2141" height="2025"/></g></g></svg>